<?xml version="1.0" encoding="utf-8"?>
<!DOCTYPE svg PUBLIC "-//W3C//DTD SVG 1.1//EN" "http://www.w3.org/Graphics/SVG/1.1/DTD/svg11.dtd">
<svg version="1.1" id="ic_id2" xmlns="http://www.w3.org/2000/svg" xmlns:xlink="http://www.w3.org/1999/xlink" x="0px" y="0px"
	 width="45px" height="45px" viewBox="0 0 45 45" enable-background="new 0 0 45 45" xml:space="preserve">
<path fill="#FFFFFF" d="M30.477,13.983c-0.938-3.177-2.426-6.234-6.916-7.1c-3.066-0.59-6.481,0.238-7.612,1.846
	c-0.417,0.592-0.473,1.251-0.206,1.888c-1.241,1.297-2.378,3.422-2.047,6.781c-0.319,0.939-1.074,2.362-1.476,2.964
	c-0.128,0.192-0.108,0.448,0.05,0.618c0.047,0.051,0.446,0.46,1.247,0.696c0.292,1.198,1.496,5.387,4.115,5.603
	c0.126,0.011,0.265,0.016,0.417,0.016c2.451,0,7.994-1.434,9.111-6.694c0.205-0.05,0.488-0.132,0.835-0.27
	c0.53-0.209,0.995-0.712,1.278-1.381c0.321-0.76,0.349-1.572,0.074-2.229c-0.287-0.691-0.732-0.958-1.055-1.059
	c-0.677-0.212-1.32,0.109-1.508,0.217c-0.094,0.037-1.48,0.552-4.517-0.04c-2.904-0.564-4.31-5.224-4.431-5.646
	c0.481-0.28,0.84-0.404,0.891-0.42c0.262-0.084,0.408-0.365,0.325-0.628c-0.084-0.263-0.364-0.407-0.626-0.325
	c-0.021,0.007-0.875,0.295-1.855,1.054c0-0.191,0.062-0.378,0.196-0.57c0.794-1.129,3.705-2,6.605-1.438
	c3.746,0.721,5.166,3.08,6.146,6.4c0.948,3.215,3.805,20.454,3.833,20.628c0.04,0.244,0.253,0.418,0.493,0.418
	c0.026,0,0.055-0.002,0.082-0.007c0.271-0.045,0.457-0.303,0.411-0.575C34.219,34.019,31.442,17.258,30.477,13.983z M22.076,16.822
	c1.149,0.224,2.09,0.299,2.839,0.299c1.524,0,2.249-0.314,2.292-0.334c0.012-0.005,0.019-0.015,0.029-0.021
	c0.01-0.005,0.021-0.005,0.03-0.011c0.111-0.067,0.459-0.226,0.728-0.138c0.173,0.056,0.317,0.22,0.43,0.488
	c0.168,0.405,0.141,0.949-0.073,1.456c-0.174,0.41-0.451,0.731-0.726,0.84c-0.59,0.233-0.939,0.272-0.939,0.272
	c-0.225,0.021-0.409,0.19-0.447,0.414c-0.883,5.188-6.558,6.347-8.525,6.195c-1.867-0.154-3.006-3.746-3.288-5.117
	c-0.04-0.195-0.193-0.349-0.389-0.389c-0.322-0.066-0.564-0.171-0.733-0.266c0.44-0.744,1.086-1.995,1.377-2.907
	c0.021-0.065,0.028-0.136,0.021-0.205c-0.383-3.573,1.02-5.555,2.275-6.599C17.392,12.095,18.947,16.214,22.076,16.822z"/>
<path fill="#FFFFFF" d="M26.518,25.68c-0.093-0.11-0.229-0.177-0.373-0.18c-0.138,0.012-0.284,0.057-0.381,0.163
	c-1.381,1.516-3.41,2.601-6.029,3.226c-0.238,0.057-0.482,0.114-0.576,0.355l-2.843,5.333c-0.083,0.155-0.078,0.342,0.013,0.492
	c0.09,0.151,0.253,0.243,0.429,0.243h13c0.007,0,0.013-0.001,0.02,0c0.275,0,0.5-0.224,0.5-0.5c0-0.084-0.021-0.163-0.058-0.233
	C29.334,30.347,27.248,26.559,26.518,25.68z M17.591,34.312l2.372-4.45c0.001-0.001,0.002-0.001,0.003-0.001
	c2.562-0.61,4.611-1.646,6.103-3.08c0.742,1.172,2.271,4.102,3.067,7.531H17.591z"/>
</svg>
