<?xml version="1.0" encoding="utf-8"?>
<!DOCTYPE svg PUBLIC "-//W3C//DTD SVG 1.1//EN" "http://www.w3.org/Graphics/SVG/1.1/DTD/svg11.dtd">
<svg version="1.1" id="ic_id3" xmlns="http://www.w3.org/2000/svg" xmlns:xlink="http://www.w3.org/1999/xlink" x="0px" y="0px"
	 width="45px" height="45px" viewBox="0 0 45 45" enable-background="new 0 0 45 45" xml:space="preserve">
<path fill="#FFFFFF" d="M18.049,27.295c2.451,0,7.993-1.434,9.109-6.694c0.205-0.05,0.487-0.132,0.834-0.27
	c0.53-0.209,0.997-0.713,1.28-1.382c0.32-0.76,0.347-1.572,0.073-2.229c-0.288-0.691-0.732-0.957-1.055-1.059
	c-0.76-0.238-1.479,0.197-1.558,0.247c-0.005,0.003-0.008,0.009-0.013,0.013c-0.026,0.018-0.047,0.043-0.069,0.066
	c-0.023,0.024-0.049,0.045-0.066,0.073c-0.015,0.022-0.021,0.049-0.032,0.073c-0.016,0.035-0.031,0.068-0.038,0.105
	c-0.001,0.007-0.006,0.012-0.007,0.019c-0.05,0.336-0.261,0.806-0.49,1.238c-0.445-1.399-1.389-3.617-3.013-4.171
	c-2.571-0.879-4.497-2.605-5.09-3.179c0.442-0.249,0.763-0.357,0.812-0.373c0.263-0.084,0.408-0.365,0.324-0.628
	c-0.083-0.263-0.363-0.407-0.625-0.325c-0.055,0.017-5.401,1.777-4.731,8.578c-0.319,0.939-1.073,2.362-1.475,2.964
	c-0.128,0.192-0.108,0.448,0.05,0.617c0.047,0.052,0.446,0.46,1.246,0.697c0.292,1.198,1.497,5.387,4.116,5.603
	C17.758,27.29,17.897,27.295,18.049,27.295z M14.426,21.166c-0.041-0.195-0.193-0.349-0.39-0.389
	c-0.321-0.066-0.563-0.171-0.732-0.266c0.439-0.744,1.086-1.994,1.376-2.907c0.021-0.065,0.028-0.136,0.021-0.205
	c-0.393-3.664,1.093-5.656,2.371-6.678c0.428,0.436,2.57,2.51,5.611,3.55c1.519,0.518,2.443,3.492,2.672,4.596
	c0.04,0.196,0.195,0.35,0.393,0.389c0.032,0.007,0.064,0.01,0.097,0.01c0.164,0,0.32-0.081,0.415-0.221
	c0.101-0.151,0.92-1.392,1.175-2.367c0.157-0.062,0.376-0.118,0.562-0.062c0.172,0.057,0.316,0.221,0.429,0.489
	c0.169,0.405,0.142,0.948-0.072,1.454c-0.173,0.411-0.451,0.733-0.727,0.842c-0.589,0.233-0.938,0.272-0.938,0.272
	c-0.227,0.021-0.41,0.19-0.448,0.414c-0.883,5.188-6.554,6.338-8.524,6.195C15.847,26.129,14.707,22.537,14.426,21.166z"/>
<path fill="#FFFFFF" d="M13.444,11.303c0.235,0.142,0.543,0.067,0.687-0.169c1.687-2.787,5.229-4.042,9.24-3.268
	c3.309,0.637,5.514,2.908,6.553,6.751c1.056,3.91-2.141,6.665-2.277,6.78c-0.211,0.179-0.237,0.493-0.06,0.704
	c0.099,0.118,0.24,0.179,0.383,0.179c0.113,0,0.227-0.038,0.32-0.117c0.157-0.131,3.823-3.271,2.599-7.807
	c-1.131-4.183-3.665-6.767-7.328-7.473c-4.432-0.851-8.376,0.577-10.285,3.732C13.132,10.853,13.208,11.16,13.444,11.303z"/>
<path fill="#FFFFFF" d="M26.517,25.68c-0.093-0.11-0.229-0.177-0.374-0.18c-0.115,0.012-0.282,0.057-0.381,0.163
	c-1.38,1.517-3.408,2.602-6.028,3.226c-0.247,0.059-0.483,0.115-0.575,0.355l-2.842,5.333c-0.082,0.155-0.078,0.342,0.013,0.492
	c0.091,0.151,0.253,0.243,0.429,0.243h13c0.007,0,0.015,0,0.02,0c0.276,0,0.5-0.224,0.5-0.5c0-0.084-0.021-0.163-0.057-0.233
	C29.333,30.347,27.247,26.559,26.517,25.68z M17.591,34.312l2.372-4.45c0.001-0.001,0.002-0.001,0.003-0.001
	c2.561-0.61,4.61-1.645,6.103-3.08c0.742,1.173,2.271,4.102,3.068,7.531H17.591z"/>
</svg>
