<?xml version="1.0" encoding="utf-8"?>
<!DOCTYPE svg PUBLIC "-//W3C//DTD SVG 1.1//EN" "http://www.w3.org/Graphics/SVG/1.1/DTD/svg11.dtd">
<svg version="1.1" id="ic_id4" xmlns="http://www.w3.org/2000/svg" xmlns:xlink="http://www.w3.org/1999/xlink" x="0px" y="0px"
	 width="45px" height="45px" viewBox="0 0 45 45" enable-background="new 0 0 45 45" xml:space="preserve">
<path fill="#FFFFFF" d="M18.049,27.295c2.451,0,7.992-1.434,9.109-6.694c0.205-0.05,0.488-0.132,0.836-0.27
	c0.529-0.209,0.994-0.713,1.277-1.382c0.32-0.759,0.348-1.571,0.074-2.229c-0.289-0.691-0.732-0.958-1.055-1.059
	c-0.758-0.24-1.479,0.196-1.557,0.247c-0.232,0.148-0.303,0.457-0.154,0.69c0.148,0.232,0.457,0.301,0.691,0.153
	c0.08-0.051,0.443-0.222,0.719-0.138c0.174,0.055,0.32,0.22,0.432,0.49c0.17,0.404,0.143,0.948-0.072,1.455
	c-0.172,0.41-0.449,0.732-0.723,0.841c-0.592,0.233-0.941,0.272-0.941,0.272c-0.227,0.021-0.41,0.19-0.447,0.414
	c-0.883,5.189-6.552,6.354-8.524,6.195c-1.867-0.154-3.007-3.746-3.288-5.117c-0.041-0.195-0.193-0.349-0.39-0.39
	c-0.321-0.065-0.564-0.17-0.733-0.265c0.441-0.746,1.089-1.998,1.378-2.907c0.021-0.066,0.028-0.136,0.021-0.205
	c-0.328-3.055,0.636-4.966,1.79-6.146c0.006-0.006,0.011-0.013,0.017-0.02c0.171-0.173,0.345-0.331,0.521-0.474
	c0.609,1.181,2.193,3.979,4.352,5.722c1.995,1.61,4.125,2.309,4.215,2.337c0.264,0.088,0.545-0.059,0.629-0.322
	c0.086-0.263-0.059-0.544-0.322-0.629c-0.02-0.007-2.049-0.675-3.893-2.163c-2.549-2.06-4.325-5.874-4.343-5.912
	s-0.048-0.066-0.074-0.098c0.138-0.081,0.273-0.15,0.39-0.204c2.341-1.083,6.741-1.051,8.696,0.609
	c1.91,1.624,2.48,4.294,3.031,6.876c0.193,0.903,0.393,1.837,0.646,2.697c0.861,2.914-2.354,5.519-2.387,5.544
	c-0.215,0.172-0.25,0.486-0.078,0.703c0.098,0.124,0.244,0.188,0.391,0.188c0.109,0,0.219-0.035,0.311-0.108
	c0.154-0.123,3.775-3.047,2.723-6.61c-0.244-0.823-0.43-1.697-0.627-2.622c-0.586-2.746-1.193-5.586-3.361-7.43
	c-2.299-1.955-7.052-2.011-9.764-0.755c-1.424,0.659-1.834,1.474-1.903,2.105c-1.175,1.272-2.292,3.381-1.963,6.709
	c-0.317,0.936-1.073,2.359-1.476,2.964c-0.128,0.192-0.107,0.448,0.05,0.617c0.047,0.052,0.445,0.461,1.247,0.697
	c0.291,1.198,1.496,5.387,4.115,5.603C17.758,27.29,17.898,27.295,18.049,27.295z"/>
<path fill="#FFFFFF" d="M26.518,25.68c-0.094-0.11-0.23-0.177-0.375-0.18c-0.113,0.012-0.281,0.057-0.381,0.163
	c-1.379,1.516-3.408,2.601-6.027,3.226c-0.237,0.056-0.482,0.114-0.576,0.355l-2.843,5.333c-0.082,0.155-0.078,0.342,0.013,0.492
	c0.091,0.151,0.253,0.243,0.429,0.243h13c0.008,0,0.016,0,0.02,0c0.275,0,0.5-0.224,0.5-0.5c0-0.084-0.021-0.163-0.057-0.233
	C29.334,30.347,27.248,26.559,26.518,25.68z M17.59,34.312l2.373-4.45c0.001-0.001,0.002-0.001,0.003-0.001
	c2.562-0.61,4.612-1.646,6.102-3.08c0.742,1.173,2.271,4.102,3.068,7.531H17.59z"/>
</svg>
