<?xml version="1.0" encoding="utf-8"?>
<!DOCTYPE svg PUBLIC "-//W3C//DTD SVG 1.1//EN" "http://www.w3.org/Graphics/SVG/1.1/DTD/svg11.dtd">
<svg version="1.1" id="ic_id1" xmlns="http://www.w3.org/2000/svg" xmlns:xlink="http://www.w3.org/1999/xlink" x="0px" y="0px"
	 width="45px" height="45px" viewBox="0 0 45 45" enable-background="new 0 0 45 45" xml:space="preserve">
<path fill="#FFFFFF" d="M18.049,27.295c2.452,0,7.993-1.434,9.11-6.694c0.205-0.05,0.487-0.132,0.835-0.27
	c0.529-0.209,0.996-0.713,1.278-1.381c0.321-0.76,0.349-1.572,0.074-2.229c-0.288-0.691-0.732-0.957-1.055-1.059
	c-0.757-0.237-1.478,0.196-1.557,0.247c-0.007,0.004-0.01,0.011-0.017,0.016c-0.028,0.02-0.05,0.046-0.074,0.071
	c-0.022,0.024-0.045,0.046-0.062,0.073c-0.004,0.007-0.012,0.011-0.016,0.019c-0.647,1.162-1.338,2.185-1.748,2.768l-0.277-0.333
	l0.621-2.984c0.029-0.14-0.003-0.285-0.088-0.399l-0.754-1.015c0.152-0.689,0.419-2.593-1.009-3.554
	c-0.46-0.311-2.624-0.735-4.305-1.028c0.066-0.117,0.089-0.259,0.045-0.397c-0.083-0.263-0.363-0.407-0.626-0.325
	c-0.016,0.005-0.479,0.163-1.105,0.538c-0.04,0.019-0.077,0.038-0.11,0.065c-0.313,0.195-0.661,0.447-1.015,0.76
	c-0.269-0.322-0.635-0.808-0.863-1.271c1.756-0.69,6.591-2.157,9.622-0.933c3.571,1.441,4.509,3.664,5.108,5.634
	c0.709,2.331-0.429,5.53-1.918,7.485c-0.168,0.22-0.125,0.533,0.094,0.7c0.091,0.069,0.197,0.103,0.303,0.103
	c0.15,0,0.3-0.067,0.398-0.197c1.645-2.157,2.887-5.729,2.08-8.382c-0.716-2.353-1.9-4.74-5.691-6.271
	C21.626,5.558,15.83,7.567,14.48,8.187c-0.225,0.103-0.34,0.354-0.272,0.592c0.233,0.816,0.931,1.707,1.285,2.123
	c-1.137,1.316-2.104,3.369-1.795,6.498c-0.319,0.938-1.074,2.36-1.476,2.964c-0.128,0.192-0.108,0.448,0.049,0.617
	c0.047,0.052,0.446,0.46,1.247,0.697c0.292,1.198,1.495,5.387,4.115,5.603C17.758,27.29,17.897,27.295,18.049,27.295z
	 M14.427,21.166c-0.04-0.195-0.193-0.349-0.389-0.389c-0.321-0.066-0.564-0.171-0.733-0.266c0.44-0.745,1.087-1.996,1.377-2.907
	c0.021-0.065,0.028-0.136,0.021-0.205c-0.451-4.208,1.574-6.217,2.917-7.074c2.278,0.369,4.78,0.863,5.133,1.074
	c1.112,0.748,0.552,2.668,0.546,2.688c-0.045,0.151-0.017,0.316,0.078,0.442l0.761,1.025l-0.625,3
	c-0.031,0.148,0.007,0.304,0.104,0.421l0.844,1.015c0.096,0.114,0.236,0.181,0.385,0.181c0.004,0,0.008,0,0.012,0
	c0.152-0.004,0.295-0.076,0.387-0.198c0.046-0.06,1.103-1.466,2.119-3.267c0.146-0.067,0.409-0.158,0.629-0.091
	c0.174,0.056,0.318,0.22,0.432,0.49c0.168,0.404,0.142,0.948-0.072,1.455c-0.174,0.41-0.451,0.732-0.725,0.841
	c-0.592,0.233-0.94,0.272-0.94,0.272c-0.226,0.021-0.409,0.19-0.447,0.414c-0.883,5.188-6.562,6.347-8.525,6.195
	C15.847,26.129,14.708,22.537,14.427,21.166z"/>
<path fill="#FFFFFF" d="M26.518,25.68c-0.092-0.11-0.229-0.177-0.373-0.18c-0.139,0.012-0.283,0.057-0.381,0.163
	c-1.381,1.516-3.408,2.601-6.028,3.226c-0.238,0.056-0.482,0.114-0.576,0.355l-2.843,5.333c-0.083,0.155-0.078,0.342,0.013,0.492
	c0.09,0.151,0.253,0.243,0.429,0.243h13c0.007,0,0.013-0.001,0.021,0c0.275,0,0.5-0.224,0.5-0.5c0-0.084-0.021-0.163-0.059-0.233
	C29.334,30.346,27.248,26.558,26.518,25.68z M17.591,34.312l2.373-4.45c0.001-0.001,0.002-0.001,0.003-0.001
	c2.562-0.61,4.611-1.646,6.103-3.08c0.742,1.172,2.271,4.101,3.068,7.531H17.591z"/>
</svg>
