<?xml version="1.0" encoding="utf-8"?>
<!-- Generator: Adobe Illustrator 16.0.0, SVG Export Plug-In . SVG Version: 6.00 Build 0)  -->
<!DOCTYPE svg PUBLIC "-//W3C//DTD SVG 1.1//EN" "http://www.w3.org/Graphics/SVG/1.1/DTD/svg11.dtd">
<svg version="1.1" id="圖層_1" xmlns="http://www.w3.org/2000/svg" xmlns:xlink="http://www.w3.org/1999/xlink" x="0px" y="0px"
	 width="411px" height="44px" viewBox="0 0 411 44" enable-background="new 0 0 411 44" xml:space="preserve">
<title>LOGO Copy</title>
<desc>Created with Sketch.</desc>
<g id="_x30_402中原">
	<g id="LOGO-Copy">
		<g id="LOGO" transform="translate(0.000000, 1.000000)">
			<path id="Fill-1" fill="#0064A8" d="M20.778,41.554c11.443,0,20.777-9.333,20.777-20.777C41.555,9.333,32.221,0,20.778,0
				C9.332,0-0.001,9.333-0.001,20.777C-0.001,32.221,9.332,41.554,20.778,41.554"/>
			<path id="Fill-4" fill="#FFFFFF" d="M29.248,9.805c0.64,1.917,4.167,3.944,4.167,3.944c1.75-1.472,0.639-6.527,0.639-6.527
				c-0.778,0-1.527,3.722-1.527,3.722C30.277,9.583,29.248,9.805,29.248,9.805"/>
			<path id="Fill-6" fill="#FFFFFF" d="M31.111,13.527c0.444,1.972,3.861,4.278,3.861,4.278c2.305-1.833,1.055-6.444,1.055-6.444
				c-0.751-0.083-1.75,3.555-1.75,3.555C32.139,13.389,31.111,13.527,31.111,13.527"/>
			<path id="Fill-8" fill="#FFFFFF" d="M32.444,17.305c0.25,2,3.306,4.527,3.306,4.527c2.556-1.944,1.917-6.333,1.917-6.333
				c-0.751-0.111-2.224,3.527-2.224,3.527C33.472,17.361,32.444,17.305,32.444,17.305"/>
			<path id="Fill-10" fill="#FFFFFF" d="M35.387,23.332c-1.388-2.083-2.416-2.389-2.416-2.389c-0.056,2.417,2.11,5.389,2.11,5.389
				c2.723-1.084,3.196-5.889,3.196-5.889C37.61,20.167,35.387,23.332,35.387,23.332"/>
			<path id="Fill-12" fill="#FFFFFF" d="M34.194,27.472c-0.444-2.39-1.445-2.89-1.445-2.89c-0.916,2.084-0.111,5.305-0.111,5.305
				c4.195-0.443,5.861-4.666,5.861-4.666C37.998,24.748,34.194,27.472,34.194,27.472"/>
			<path id="Fill-14" fill="#FFFFFF" d="M31.722,30.86c0.36-2.39-0.277-3.444-0.277-3.444c-1.891,1.61-1.75,5.527-1.75,5.527
				c4.887-0.307,6.887-2.861,6.887-2.861C35.137,29.527,31.722,30.86,31.722,30.86"/>
			<path id="Fill-16" fill="#FFFFFF" d="M27.971,33.971c1.473-2.61,0.806-3.916,0.806-3.916c-2.749,2.305-3.36,5.443-3.36,5.443
				c3.36,1.14,7.194-1.25,7.194-1.25C31.081,33.221,27.971,33.971,27.971,33.971"/>
			<path id="Fill-18" fill="#FFFFFF" d="M31.972,10.167c0.332-0.195-0.14-1.444-1.056-2.778c-0.944-1.361-2-2.278-2.361-2.083
				C28.222,5.5,28.693,6.75,29.611,8.083C30.554,9.444,31.611,10.36,31.972,10.167"/>
			<path id="Fill-20" fill="#FFFFFF" d="M12.305,9.805c0,0-1-0.222-3.277,1.139c0,0-0.751-3.722-1.5-3.722
				c0,0-1.139,5.055,0.639,6.527C8.166,13.75,11.666,11.722,12.305,9.805"/>
			<path id="Fill-22" fill="#FFFFFF" d="M6.583,17.805c0,0,3.443-2.305,3.861-4.277c0,0-1.027-0.139-3.139,1.389
				c0,0-1-3.639-1.75-3.555C5.556,11.361,4.278,15.972,6.583,17.805"/>
			<path id="Fill-24" fill="#FFFFFF" d="M5.805,21.832c0,0,3.084-2.527,3.334-4.527c0,0-1.056,0.055-3,1.722
				c0,0-1.473-3.639-2.222-3.527C3.917,15.5,3.25,19.888,5.805,21.832"/>
			<path id="Fill-26" fill="#FFFFFF" d="M6.499,26.332c0,0,2.168-2.972,2.111-5.389c0,0-1.028,0.306-2.416,2.389
				c0,0-2.223-3.167-2.916-2.888C3.279,20.444,3.778,25.248,6.499,26.332"/>
			<path id="Fill-28" fill="#FFFFFF" d="M8.833,24.582c0,0-0.999,0.5-1.473,2.89c0,0-3.777-2.724-4.305-2.251
				c0,0,1.693,4.223,5.86,4.666C8.916,29.887,9.722,26.666,8.833,24.582"/>
			<path id="Fill-30" fill="#FFFFFF" d="M10.139,27.416c0,0-0.667,1.055-0.306,3.444c0,0-3.417-1.333-4.861-0.778
				c0,0,2.001,2.556,6.917,2.861C11.889,32.943,12.027,29.026,10.139,27.416"/>
			<path id="Fill-32" fill="#FFFFFF" d="M12.778,30.055c0,0-0.639,1.305,0.832,3.916c0,0-3.109-0.75-4.666,0.277
				c0,0,3.834,2.389,7.194,1.25C16.138,35.498,15.528,32.359,12.778,30.055"/>
			<path id="Fill-34" fill="#FFFFFF" d="M11.944,8.083C12.889,6.75,13.36,5.5,12.999,5.306c-0.361-0.195-1.39,0.722-2.332,2.083
				C9.722,8.722,9.25,9.972,9.612,10.167C9.973,10.36,11,9.444,11.944,8.083"/>
			<path id="Fill-36" fill="#FFFFFF" d="M25.305,10.472c-0.094,0-0.185-0.013-0.274-0.026c0.047-0.161,0.081-0.327,0.081-0.502
				c0-0.831-0.573-1.535-1.356-1.799c0.277-0.543,0.867-0.923,1.55-0.923c0.973,0,1.749,0.723,1.749,1.612
				C27.054,9.75,26.278,10.472,25.305,10.472 M24.736,10.373c-0.668-0.222-1.153-0.818-1.153-1.54c0-0.149,0.029-0.29,0.069-0.426
				c0.667,0.228,1.153,0.836,1.153,1.537C24.805,10.093,24.776,10.235,24.736,10.373 M23.082,11.583
				c-0.709,0-1.313-0.402-1.587-0.965c0.76-0.276,1.31-0.97,1.31-1.785c0-0.172-0.031-0.335-0.077-0.494
				c0.113-0.022,0.232-0.034,0.354-0.034c0.095,0,0.185,0.013,0.274,0.026c-0.048,0.161-0.08,0.327-0.08,0.501
				c0,0.832,0.574,1.536,1.358,1.799C24.358,11.187,23.768,11.583,23.082,11.583 M22.499,8.833c0,0.704-0.46,1.29-1.102,1.525
				c-0.038-0.133-0.065-0.271-0.065-0.414c0-0.68,0.457-1.275,1.104-1.519C22.474,8.557,22.499,8.691,22.499,8.833 M20.777,10.472
				c-0.104,0-0.203-0.013-0.302-0.028c0.048-0.16,0.081-0.325,0.081-0.5c0-0.827-0.566-1.528-1.358-1.795
				c0.279-0.546,0.877-0.927,1.579-0.927c0.689,0,1.287,0.387,1.561,0.94c-0.767,0.279-1.31,0.972-1.31,1.782
				c0,0.173,0.033,0.337,0.079,0.496C20.999,10.46,20.889,10.472,20.777,10.472 M20.181,10.37c-0.674-0.225-1.154-0.818-1.154-1.536
				c0-0.148,0.029-0.287,0.069-0.423c0.674,0.232,1.153,0.837,1.153,1.534C20.249,10.092,20.221,10.232,20.181,10.37 M18.499,11.583
				c-0.688,0-1.284-0.4-1.559-0.96c0.781-0.273,1.337-0.97,1.337-1.789c0-0.174-0.032-0.338-0.079-0.499
				c0.099-0.017,0.198-0.029,0.301-0.029c0.104,0,0.203,0.013,0.303,0.028c-0.047,0.161-0.079,0.326-0.079,0.5
				c0,0.827,0.566,1.529,1.358,1.796C19.804,11.186,19.204,11.583,18.499,11.583 M17.971,8.833c0,0.709-0.467,1.297-1.127,1.529
				c-0.039-0.135-0.066-0.274-0.066-0.418c0-0.692,0.474-1.294,1.127-1.53C17.944,8.548,17.971,8.688,17.971,8.833 M16.221,10.472
				c-0.944,0-1.721-0.723-1.721-1.639c0-0.889,0.776-1.612,1.721-1.612c0.706,0,1.306,0.382,1.582,0.931
				c-0.771,0.271-1.331,0.969-1.331,1.792c0,0.173,0.033,0.338,0.079,0.498C16.445,10.46,16.335,10.472,16.221,10.472 M25.305,6.916
				c-0.823,0-1.536,0.474-1.854,1.147c-0.119-0.022-0.242-0.036-0.369-0.036c-0.153,0-0.302,0.019-0.446,0.048
				c-0.313-0.681-1.031-1.159-1.859-1.159c-0.843,0-1.563,0.475-1.879,1.148c-0.129-0.023-0.262-0.037-0.398-0.037
				c-0.135,0-0.268,0.014-0.396,0.038c-0.317-0.675-1.036-1.149-1.882-1.149c-1.11,0-2.026,0.862-2.026,1.917
				c0,1.055,0.916,1.916,2.026,1.916c0.146,0,0.287-0.014,0.423-0.041c0.314,0.676,1.031,1.152,1.855,1.152
				c0.845,0,1.564-0.474,1.882-1.149c0.128,0.023,0.26,0.037,0.396,0.037c0.144,0,0.285-0.015,0.422-0.043
				c0.315,0.678,1.037,1.155,1.884,1.155c0.823,0,1.537-0.473,1.854-1.146c0.12,0.021,0.241,0.035,0.368,0.035
				c1.14,0,2.056-0.86,2.056-1.916C27.361,7.778,26.445,6.916,25.305,6.916"/>
			<path id="Fill-38" fill="#FFFFFF" d="M23.746,37.992c-0.126,0.203-0.438,0.328-0.9,0.328c-0.211,0-0.454-0.033-0.71-0.083
				c0.089-0.312,0.153-0.657,0.194-1.021c0.314-0.216,0.593-0.438,0.833-0.665c0.423,0.442,0.665,0.865,0.656,1.17
				C23.82,37.822,23.795,37.91,23.746,37.992 M21.719,38.691c-0.262,0.59-0.616,0.914-0.954,0.908
				c-0.321,0.008-0.67-0.317-0.929-0.906c-0.04-0.088-0.07-0.191-0.106-0.289c0.336-0.082,0.685-0.188,1.049-0.34
				c0.363,0.152,0.711,0.26,1.046,0.342C21.79,38.502,21.757,38.604,21.719,38.691 M18.698,38.318
				c-0.463,0.002-0.773-0.125-0.886-0.326c-0.052-0.082-0.077-0.173-0.077-0.277c-0.008-0.306,0.226-0.725,0.646-1.164
				c0.241,0.229,0.525,0.455,0.848,0.672c0.042,0.361,0.104,0.703,0.191,1.012C19.158,38.285,18.911,38.32,18.698,38.318
				 M17.735,35.057c0-0.105,0.023-0.195,0.074-0.272c0.116-0.206,0.427-0.333,0.889-0.331c0.214-0.001,0.462,0.034,0.723,0.085
				c-0.089,0.308-0.15,0.649-0.192,1.012c-0.322,0.216-0.606,0.44-0.848,0.669C17.96,35.781,17.727,35.361,17.735,35.057
				 M19.836,34.096c0.256-0.577,0.6-0.895,0.919-0.895h0.01c0.339-0.006,0.692,0.313,0.954,0.896
				c0.037,0.082,0.068,0.179,0.102,0.271c-0.334,0.082-0.682,0.189-1.043,0.342c-0.363-0.152-0.709-0.258-1.043-0.34
				C19.768,34.275,19.798,34.179,19.836,34.096 M22.36,35.861c0.235,0.173,0.445,0.349,0.63,0.524
				c-0.185,0.177-0.395,0.353-0.632,0.524c0.014-0.172,0.024-0.345,0.026-0.523C22.382,36.207,22.371,36.034,22.36,35.861
				 M21.079,34.852c0.287-0.111,0.561-0.195,0.823-0.26c0.071,0.239,0.123,0.508,0.165,0.789c-0.16-0.101-0.323-0.199-0.496-0.293
				C21.406,34.999,21.243,34.928,21.079,34.852 M19.49,35.375c0.041-0.278,0.094-0.544,0.164-0.781
				c0.263,0.063,0.535,0.148,0.821,0.259c-0.163,0.075-0.326,0.147-0.49,0.235C19.814,35.18,19.649,35.277,19.49,35.375
				 M19.199,36.918c-0.243-0.175-0.458-0.354-0.646-0.533c0.188-0.178,0.402-0.357,0.646-0.531
				c-0.014,0.175-0.026,0.351-0.027,0.533C19.173,36.568,19.186,36.744,19.199,36.918 M20.475,37.921
				c-0.285,0.11-0.561,0.194-0.823,0.259c-0.069-0.239-0.121-0.505-0.161-0.783c0.158,0.1,0.323,0.197,0.496,0.289
				C20.15,37.773,20.313,37.846,20.475,37.921 M22.068,37.393c-0.041,0.28-0.093,0.549-0.164,0.789
				c-0.263-0.064-0.535-0.149-0.823-0.26c0.164-0.076,0.327-0.146,0.491-0.236C21.744,37.592,21.909,37.493,22.068,37.393
				 M21.457,37.477c-0.227,0.123-0.455,0.229-0.68,0.326c-0.225-0.098-0.452-0.204-0.679-0.326c-0.233-0.123-0.447-0.256-0.652-0.39
				c-0.021-0.226-0.035-0.459-0.035-0.7c0-0.242,0.014-0.477,0.036-0.703c0.204-0.133,0.418-0.264,0.65-0.386
				c0.228-0.123,0.455-0.23,0.68-0.327c0.225,0.097,0.453,0.203,0.682,0.326c0.232,0.125,0.447,0.258,0.652,0.395
				c0.021,0.225,0.034,0.456,0.034,0.695c0,0.238-0.013,0.47-0.034,0.693C21.906,37.218,21.692,37.353,21.457,37.477 M22.84,34.452
				h0.006c0.462,0,0.774,0.122,0.9,0.331c0.048,0.077,0.073,0.164,0.073,0.27c0.008,0.304-0.233,0.727-0.656,1.167
				c-0.24-0.226-0.519-0.448-0.833-0.663c-0.042-0.365-0.105-0.711-0.197-1.021C22.389,34.486,22.631,34.452,22.84,34.452
				 M23.338,36.386c0.447-0.463,0.711-0.927,0.719-1.333c0-0.143-0.034-0.277-0.106-0.396c-0.205-0.317-0.608-0.441-1.104-0.443
				c-0.238,0.002-0.509,0.041-0.79,0.098c-0.28-0.795-0.724-1.324-1.291-1.349c-0.554,0.024-0.99,0.556-1.266,1.351
				c-0.286-0.058-0.561-0.098-0.802-0.098c-0.496,0.001-0.899,0.125-1.091,0.445c-0.077,0.114-0.111,0.254-0.111,0.396
				c0.01,0.406,0.267,0.868,0.71,1.329c-0.443,0.46-0.7,0.922-0.708,1.329c0,0.144,0.035,0.281,0.111,0.402
				c0.187,0.314,0.593,0.438,1.089,0.439c0.241,0,0.513-0.039,0.797-0.098c0.276,0.809,0.714,1.355,1.271,1.38
				c0.571-0.024,1.014-0.569,1.293-1.377c0.28,0.057,0.55,0.095,0.788,0.096c0.495,0,0.9-0.125,1.103-0.441
				c0.074-0.12,0.109-0.255,0.109-0.396C24.049,37.313,23.785,36.85,23.338,36.386"/>
			<path id="Fill-40" fill="#FFFFFF" d="M20.765,35.664c-0.419,0-0.769,0.327-0.769,0.723c0,0.396,0.35,0.723,0.769,0.723
				c0.421,0,0.77-0.326,0.77-0.723C21.534,35.991,21.186,35.664,20.765,35.664"/>
			<path id="Fill-42" fill="#FFFFFF" d="M19.535,12.87h-6.064v1.695h6.064c-0.193-0.234-0.314-0.524-0.314-0.847
				S19.342,13.104,19.535,12.87"/>
			<path id="Fill-44" fill="#FFFFFF" d="M28.082,12.87h-6.184c0.197,0.234,0.322,0.525,0.322,0.848s-0.125,0.613-0.321,0.847h6.183
				V12.87z"/>
			<path id="Fill-46" fill="#FFFFFF" d="M21.637,13.717c0,0.472-0.416,0.861-0.916,0.861c-0.498,0-0.916-0.389-0.916-0.861
				c0-0.473,0.418-0.861,0.916-0.861C21.221,12.856,21.637,13.245,21.637,13.717"/>
			<path id="Fill-48" fill="#FFFFFF" d="M11.854,27.813l-0.002-0.793l7.816-10.854h0.553L11.854,27.813z M29.699,27.814
				l-8.368-11.648h0.555l7.813,10.854V27.814z M34.397,34.895l0.259-0.184h-0.002l-4.635-6.452l-0.001-1.339l-7.797-10.831v-0.867
				h-2.916v0.904l-7.77,10.793v1.339l-4.637,6.453l0.257,0.186v-0.002l13.458-18.729h0.327L34.397,34.895z"/>
			<path id="Fill-50" fill="#BE4709" d="M14.958,17.36h11.638l-0.027,8.306c0,0-0.14,5.055-5.834,6.166c0,0-5.36-0.334-5.749-6.223
				L14.958,17.36z"/>
			<path id="Fill-52" fill="#FFFFFF" d="M26.596,20.805h-4.693V17.36h-2.224v3.444h-4.693v2.25h4.693v8.556
				c0.64,0.194,1.056,0.222,1.056,0.222c0.417-0.083,0.807-0.194,1.168-0.306v-8.472h4.666L26.596,20.805z"/>
		</g>
		<g id="Group-85" transform="translate(171.000000, 2.472200)">
			<path id="Fill-1_1_" fill="#742A24" d="M19.198,10.607c0.409,0,0.613,0.169,0.613,0.508c0,0.101-0.111,0.271-0.332,0.508
				c-0.426,0.558-0.894,1.091-1.405,1.599c1.243,1.202,2.266,2.023,3.065,2.463c0.613,0.356,1.395,0.568,2.349,0.635
				c0.34,0,0.511,0.127,0.511,0.381c0,0.474-0.222,0.923-0.663,1.345c-0.853,0.661-1.516,0.991-1.992,0.991
				c-0.29,0-0.554-0.127-0.791-0.381c-0.427-0.457-1.524-1.997-3.294-4.621c-0.035,0.051-0.077,0.093-0.128,0.127
				c-0.308,0.271-0.571,0.406-0.792,0.406c-0.613,0-1.218-0.186-1.813-0.559c-0.494-0.372-0.74-0.753-0.74-1.142
				c0-0.051,0.077-0.085,0.23-0.102c0.561-0.033,1.063-0.11,1.506-0.228c0.511-0.136,1.03-0.339,1.558-0.61
				c0.646-0.321,1.218-0.66,1.711-1.015C18.908,10.709,19.046,10.607,19.198,10.607z M13.275,1.264l0.715,0.102
				c3.234,0,5.414-0.034,6.537-0.102c0.272,0,0.408,0.203,0.408,0.61c0,0.288-0.136,0.55-0.408,0.787
				c-0.307,0.372-0.646,0.558-1.021,0.558c-0.817-0.152-2.146-0.228-3.984-0.228c-0.528,0-1.225,0.101-2.094,0.305l-0.025,0.507
				l4.979,0.102c0.441,0,0.834,0.059,1.175,0.178c0.306,0.085,0.459,0.262,0.459,0.533c0,0.491-0.204,0.736-0.612,0.736
				c-2.774,0-4.817,0.102-6.129,0.305c0,0.203-0.009,0.398-0.025,0.584h0.127l5.313,0.127c0.442,0,0.842,0.051,1.199,0.152
				c0.29,0.085,0.435,0.263,0.435,0.533c0,0.474-0.196,0.711-0.587,0.711c-3.099,0-5.329,0.127-6.69,0.381v0.025
				c-0.034,0.187-0.06,0.365-0.076,0.534c4.459-0.017,7.522-0.085,9.191-0.203c0.341,0,0.512,0.228,0.512,0.685
				c0,0.339-0.146,0.644-0.435,0.914c-0.375,0.424-0.774,0.635-1.2,0.635c-1.566-0.152-4.12-0.229-7.661-0.229H13.02
				c0.034,0.153,0.051,0.289,0.051,0.407l-0.205,2.64c0,0.847-0.119,1.727-0.356,2.641c1.735-0.169,3.013-0.271,3.83-0.305
				c0.34,0,0.511,0.203,0.511,0.61c0,0.507-0.238,0.812-0.715,0.914c-1.94,0.355-3.745,0.761-5.413,1.218
				c-0.817,0-1.227-0.304-1.227-0.914c0-0.524,0.103-0.93,0.308-1.218c0.084-0.051,0.255-0.093,0.51-0.127
				c0.341-0.762,0.511-1.6,0.511-2.514c0-0.931-0.077-1.921-0.229-2.971c-0.068,0.017-0.127,0.026-0.18,0.026
				c-0.816,0-1.225-0.305-1.225-0.914c0-0.356,0.161-0.703,0.485-1.041C9.997,8.652,10.347,8.5,10.722,8.5l0.459,0.101
				c0.034-0.948,0.051-1.972,0.051-3.072S11.13,3.253,10.926,2c0-0.559,0.34-0.838,1.021-0.838c0.392,0,0.697,0.059,0.918,0.177
				C13.003,1.29,13.139,1.264,13.275,1.264z M3.572,1.086l3.09,0.076c0.238,0,0.604-0.026,1.099-0.076
				c0.885,0,1.328,0.304,1.328,0.914C8.764,3.287,8.594,4.666,8.576,6.139C8.541,6.883,8.134,7.255,7.351,7.255
				c-0.46-0.067-1.072-0.101-1.839-0.101c-0.852,0-1.617,0.068-2.297,0.203C3.18,7.899,3.095,8.746,2.958,9.896h0.307L4.594,9.82
				l2.247,0.076C7.367,9.71,7.708,9.618,7.862,9.618c0.68,0,1.021,0.372,1.021,1.117c-0.222,0.423-0.393,0.906-0.512,1.447
				c-0.204,1.422-0.322,2.726-0.356,3.91c0.034,0.949-0.375,1.642-1.227,2.082c-0.97,0.44-2.314,0.661-4.033,0.661
				c-0.443,0-0.707-0.162-0.792-0.483c-0.137-0.541-0.35-1.193-0.639-1.955c0-0.27,0.103-0.406,0.308-0.406l1.123,0.127
				c1.124,0,1.897-0.093,2.322-0.28c0.375-0.118,0.604-0.414,0.69-0.888c0.271-1.202,0.528-2.2,0.766-2.996
				c0-0.356-0.067-0.534-0.204-0.534H4.261c-0.783,0-1.694,0.204-2.732,0.61c-0.681,0-1.021-0.271-1.021-0.813
				c0-0.186,0.075-0.422,0.229-0.711C0.992,9.524,1.12,8.728,1.12,8.12C1.053,7.188,1.018,6.639,1.018,6.468
				c0-0.558,0.307-0.838,0.92-0.838c0.119,0,0.221,0.009,0.306,0.026c0.103-0.051,0.205-0.093,0.308-0.127
				C2.857,5.412,3.3,5.352,3.879,5.352c0.51,0,1.19,0.034,2.042,0.102c0.511,0,0.757-0.11,0.74-0.33
				c0.017-0.728,0.042-1.304,0.077-1.727c0-0.338-0.171-0.508-0.511-0.508c-0.29-0.135-0.835-0.203-1.634-0.203
				c-0.938,0-1.958,0.144-3.065,0.432c-0.545,0-0.816-0.305-0.816-0.914c0-0.593,0.306-0.94,0.92-1.041L3.572,1.086z"/>
			<path id="Fill-3" fill="#742A24" d="M49.674,3.701c0.869,0.593,1.745,0.965,2.631,1.117c0.203,0.068,0.307,0.17,0.307,0.305
				c0,0.254-0.24,0.558-0.716,0.914c-0.392,0.288-0.8,0.432-1.226,0.432c-0.289,0-0.536-0.169-0.74-0.508
				c-0.222-0.389-0.451-1.041-0.69-1.955C49.24,3.803,49.385,3.701,49.674,3.701z M47.096,11.14v0.28v0.685l1.531,0.026
				c0.221,0,0.426,0.017,0.612,0.05v-0.939C48.44,11.175,47.725,11.14,47.096,11.14z M47.096,8.5v0.99
				c0.815-0.034,1.574-0.059,2.271-0.076c0.019-0.186,0.043-0.364,0.078-0.533c0-0.254-0.137-0.381-0.41-0.381H47.096z
				 M46.406,4.234c0.731,0,1.099,0.297,1.099,0.889l-0.588,1.244c-0.086,0.187-0.256,0.279-0.511,0.279
				c-0.494,0-0.757-0.092-0.792-0.279l-0.356-1.244C45.257,4.531,45.64,4.234,46.406,4.234z M49.75,1.67
				c0.273,0,0.512,0.127,0.716,0.381c0.204,0.22,0.306,0.465,0.306,0.736c0,0.322-0.239,0.559-0.715,0.711
				c-2.791,0.406-5.072,0.609-6.843,0.609c-0.612,0-1.063-0.093-1.354-0.279c-0.255-0.22-0.383-0.499-0.383-0.838
				c0-0.338,0.238-0.508,0.715-0.508c1.055,0.068,1.736,0.102,2.043,0.102c0.51,0,1.404-0.076,2.681-0.229
				c0.971-0.118,1.797-0.313,2.477-0.584C49.529,1.704,49.649,1.67,49.75,1.67z M40.865,4.717c0.544,0.067,0.954,0.101,1.226,0.101
				c0.237,0,0.545-0.194,0.92-0.584c0.204,0,0.307,0.127,0.307,0.381c0,0.271-0.155,0.771-0.46,1.498
				c-0.12,0.322-0.229,0.567-0.332,0.736c0.187-0.067,0.348-0.101,0.485-0.101l6.024,0.203c0.733-0.135,1.209-0.203,1.432-0.203
				c0.816,0,1.226,0.372,1.226,1.117c-0.17,0.508-0.307,1.016-0.409,1.523h0.204l1.839-0.203c0.409,0,0.613,0.178,0.613,0.534
				c0,0.372-0.197,0.761-0.587,1.168c-0.529,0.491-1.082,0.736-1.66,0.736c-0.188-0.051-0.393-0.093-0.614-0.127v1.371
				c0,0.525-0.306,0.787-0.919,0.787h-0.05c-0.103,0.068-0.222,0.102-0.358,0.102c-0.936,0-1.796,0.008-2.578,0.025
				c0.051,0.863,0.127,1.871,0.229,3.022c0,1.066-0.357,1.819-1.073,2.259c-0.715,0.389-1.48,0.584-2.298,0.584
				c-0.442,0-0.724-0.127-0.842-0.381c-0.12-0.406-0.298-0.837-0.536-1.294c-0.103-0.068-0.153-0.153-0.153-0.254
				c0-0.203,0.136-0.305,0.407-0.305c1.057,0,1.721-0.135,1.992-0.406c0.238-0.203,0.358-0.61,0.358-1.219
				c-0.034-0.677-0.061-1.32-0.077-1.93c-1.192,0.085-2.153,0.187-2.885,0.305c-0.613,0-0.92-0.305-0.92-0.914
				c0-0.203,0.118-0.457,0.357-0.762c0.289-0.305,0.646-0.457,1.072-0.457l2.349,0.051v-0.66v-0.254
				c-0.578,0.017-1.105,0.051-1.583,0.101c-0.596,0.051-1.293,0.17-2.093,0.356c-0.613,0-0.919-0.296-0.919-0.889
				c0-0.254,0.177-0.55,0.536-0.888c0.356-0.305,0.688-0.458,0.995-0.458c0.237,0,0.512,0.035,0.816,0.102
				c0.512,0.085,1.057,0.127,1.635,0.127c0.188-0.017,0.375-0.025,0.563-0.025c-0.018-0.39-0.034-0.745-0.051-1.067
				c-0.801,0.017-1.652,0.043-2.554,0.076c-0.546,0-0.817-0.245-0.817-0.736c0-0.237,0.068-0.448,0.205-0.635
				c-0.308-0.05-0.571-0.211-0.792-0.482c-0.359-0.44-0.536-0.94-0.536-1.498C40.559,4.894,40.659,4.717,40.865,4.717z
				 M33.766,14.187c0.052-0.016,0.102-0.025,0.154-0.025l3.166,0.102c0.237,0,0.468,0.017,0.689,0.05
				c0.017-0.338,0.033-0.727,0.05-1.168c-1.821,0.017-3.175,0.127-4.06,0.33V14.187z M33.766,11.648
				c0.086-0.016,0.17-0.025,0.256-0.025l3.166,0.127c0.238,0,0.468,0.017,0.689,0.051c0.018-0.237,0.025-0.466,0.025-0.686
				c0-0.169-0.06-0.262-0.178-0.279c-0.479-0.068-1.193-0.102-2.146-0.102c-0.51,0-1.114,0.06-1.813,0.178V11.648z M31.775,2.101
				l3.089,0.026l-0.025-0.356c0-0.744,0.341-1.117,1.021-1.117c0.818,0,1.227,0.373,1.227,1.117l-0.025,0.407l1.659,0.025
				c0.441,0,0.843,0.051,1.2,0.152c0.289,0.085,0.434,0.263,0.434,0.534c0,0.474-0.203,0.71-0.613,0.71
				c-1.005,0-1.932,0.009-2.782,0.026l-0.053,0.888h1.202c0.408,0,0.782,0.068,1.123,0.204c0.271,0.085,0.408,0.296,0.408,0.634
				c0,0.322-0.17,0.483-0.51,0.483c-0.835,0-1.609,0.009-2.324,0.025l-0.051,0.889h2.17l1.328-0.102
				c0.407,0,0.612,0.238,0.612,0.711c0,0.305-0.136,0.568-0.409,0.787C40.252,8.382,40.014,8.5,39.74,8.5
				c-1.038-0.085-2.255-0.127-3.65-0.127c-1.021,0-2.026,0.051-3.015,0.152c-0.73,0.034-1.506,0.153-2.322,0.356
				c-0.749,0-1.123-0.305-1.123-0.914c0-0.271,0.152-0.584,0.459-0.94c0.222-0.254,0.511-0.381,0.868-0.381
				c0.477,0.136,0.885,0.203,1.227,0.203l2.834-0.076l-0.026-0.812c-1.328,0.068-2.366,0.203-3.114,0.406
				c-0.545,0-0.817-0.279-0.817-0.838c0-0.169,0.11-0.381,0.331-0.635c0.221-0.254,0.519-0.381,0.894-0.381h2.656l-0.025-0.812
				c-1.551,0.068-2.767,0.169-3.651,0.305c-0.545,0-0.817-0.263-0.817-0.787c0-0.22,0.11-0.457,0.331-0.711
				C31.051,2.237,31.383,2.101,31.775,2.101z M32.694,9.287c0.136,0,0.264,0.009,0.382,0.025c0.205-0.084,0.452-0.127,0.742-0.127
				c1.651,0,3.012,0.035,4.085,0.102c0.392,0,0.767-0.067,1.124-0.203c0.749,0,1.124,0.339,1.124,1.015
				c-0.393,1.236-0.588,2.836-0.588,4.799c0,0.796,0.059,1.634,0.178,2.514c0,1.016-0.306,1.523-0.919,1.523
				c-0.527,0-0.842-0.279-0.944-0.838c-0.119-0.575-0.18-1.277-0.18-2.107c0-0.051,0.01-0.152,0.027-0.305
				c-1.805,0.017-3.142,0.127-4.01,0.33c-0.068,0.39-0.152,0.737-0.256,1.041c-0.203,0.661-0.57,1.21-1.098,1.651
				c-0.459,0.354-0.859,0.533-1.2,0.533c-0.392,0-0.851-0.186-1.379-0.559c-0.579-0.457-0.867-0.812-0.867-1.066
				s0.136-0.457,0.407-0.609c0.852-0.186,1.507-0.534,1.966-1.041c0.461-0.491,0.69-1.532,0.69-3.123
				c0-0.914-0.102-1.896-0.307-2.946C31.672,9.49,32.013,9.287,32.694,9.287z"/>
			<path id="Fill-5" fill="#742A24" d="M79.485,13.451c0.682,0,1.021,0.305,1.021,0.914c0,0.339-0.067,0.584-0.203,0.736
				c-1.515,0.678-2.333,1.016-2.451,1.016c-0.477,0-0.716-0.178-0.716-0.533c0-0.051,0.41-0.55,1.227-1.498
				C78.632,13.663,79.007,13.451,79.485,13.451z M74.073,12.867c0.68,0,1.02,0.296,1.02,0.889c0,0.355-0.066,0.592-0.204,0.711
				c-1.259,0.677-1.939,1.015-2.043,1.015c-0.476,0-0.715-0.16-0.715-0.482c0-0.068,0.272-0.584,0.818-1.549
				C73.203,13.062,73.578,12.867,74.073,12.867z M71.902,2.508v0.38h3.396c0.154,0,0.289,0.009,0.408,0.026V2.888
				c0-0.203-0.136-0.304-0.408-0.304C74.378,2.55,73.246,2.525,71.902,2.508z M71.824,4.183c-0.034,0.339-0.069,0.652-0.103,0.94
				c1.106,0.017,2.299,0.093,3.575,0.228c0.205,0,0.307-0.109,0.307-0.33c0-0.338,0.008-0.643,0.025-0.914
				C74.234,4.107,72.964,4.133,71.824,4.183z M70.446,8.703c-0.238,0.406-0.527,0.838-0.867,1.295c0,0.203,0.135,0.305,0.408,0.305
				l1.583,0.101c0.8,0,1.446-0.025,1.939-0.076c0.239-0.017,0.358-0.127,0.358-0.33c0-0.017-0.026-0.051-0.076-0.102
				c-0.119-0.135-0.299-0.304-0.537-0.507V9.084c0-0.153,0.018-0.279,0.051-0.381h-1.379H70.446z M66.921,2.888h2.834
				c-0.016-0.118-0.033-0.245-0.05-0.38c-0.699-0.017-1.422-0.026-2.17-0.026c-0.409,0-0.614,0.102-0.614,0.305V2.888z
				 M69.859,5.148c0.017-0.304,0.024-0.609,0.024-0.914c-1.209,0.068-2.212,0.144-3.012,0.229c-0.018,0.152-0.035,0.304-0.051,0.457
				c0,0.288,0.136,0.431,0.408,0.431C68.011,5.25,68.888,5.182,69.859,5.148z M68.964,13.248c0.817,0,1.227,0.44,1.227,1.32
				c-0.308,0.491-0.622,0.94-0.944,1.346c1.906,0.051,3.693,0.212,5.361,0.482c1.891,0.271,3.311,0.407,4.265,0.407
				c1.225,0,2.621-0.339,4.188-1.016c0.272,0,0.408,0.203,0.408,0.609c0,0.441-0.349,1.067-1.046,1.879
				c-0.784,0.796-1.491,1.194-2.12,1.194c-0.222,0-0.519-0.043-0.894-0.127c-5.022-1.287-8.265-1.93-9.729-1.93
				c-0.562,0-1.31,0.101-2.246,0.305c-0.817,0-1.226-0.339-1.226-1.016c0-0.067,0.06-0.144,0.178-0.229
				c0.443-0.389,0.758-0.693,0.945-0.914c0.272-0.321,0.511-0.753,0.715-1.295C68.13,13.587,68.438,13.248,68.964,13.248z
				 M65.798,0.756c0.188,0,0.374,0.034,0.563,0.101c0.204,0.085,0.493,0.127,0.868,0.127h4.673c1.056,0,2.289,0.034,3.702,0.102
				c0.289,0,0.664-0.034,1.123-0.102c0.612,0,0.92,0.297,0.92,0.889c0,0.017-0.025,0.076-0.076,0.178
				c-0.086,0.152-0.162,0.431-0.231,0.837c-0.067,0.576-0.101,1.177-0.101,1.803c0,0.305,0.033,0.72,0.101,1.244
				c0,0.678-0.271,1.016-0.815,1.016c-1.873-0.203-3.56-0.305-5.058-0.305c-0.067,0.203-0.144,0.407-0.229,0.61
				c2.792,0.017,5.2,0.127,7.226,0.33l1.634-0.229c0.749,0,1.123,0.203,1.123,0.61c0,0.152-0.075,0.33-0.228,0.533
				c-0.409,0.66-0.707,1.701-0.896,3.123c0,0.677-0.341,1.016-1.021,1.016c-0.681,0-1.022-0.296-1.022-0.889
				c0-1.016,0.104-1.938,0.308-2.768c-0.938-0.101-2-0.177-3.191-0.228c0.204,0.355,0.374,0.728,0.509,1.117
				c0.155,0.44,0.231,0.728,0.231,0.863c0,0.677-0.451,1.041-1.354,1.092c-1.53,0.136-2.782,0.203-3.754,0.203h-0.996
				c-0.611,0-1.336,0.034-2.17,0.102c-0.731,0-1.097-0.305-1.097-0.914c0-0.136,0.11-0.313,0.332-0.534
				c0.697-0.626,1.225-1.235,1.583-1.828c0.016-0.016,0.034-0.033,0.051-0.05c-1.379,0.101-2.623,0.262-3.728,0.482
				c0,1.93-0.104,3.081-0.308,3.453c-0.152,0.406-0.526,0.609-1.123,0.609c-0.477,0-0.715-0.16-0.715-0.482
				c0-1.963-0.205-3.665-0.612-5.103c0-0.542,0.374-0.813,1.123-0.813c0.357,0,0.62,0.06,0.792,0.178
				c0.306,0.152,0.553,0.228,0.739,0.228c1.208-0.067,2.759-0.101,4.648-0.101c0.085-0.186,0.153-0.381,0.204-0.584
				c-1.021,0.017-1.711,0.059-2.068,0.127c-0.477,0.017-1.063,0.101-1.762,0.254c-0.545,0-0.817-0.339-0.817-1.016
				c0.205-0.88,0.307-1.659,0.307-2.336c0-0.559-0.102-1.235-0.307-2.031C64.879,1.06,65.186,0.756,65.798,0.756z M60.078,15.685
				c0.63,0.136,1.107,0.204,1.43,0.204c0.818,0,1.839-0.677,3.064-2.032c0.271,0,0.409,0.17,0.409,0.508
				c0,0.457-0.417,1.295-1.251,2.514c-0.834,1.303-1.575,1.955-2.223,1.955c-0.477,0-0.885-0.22-1.225-0.66
				c-0.408-0.525-0.613-1.143-0.613-1.854C59.67,15.897,59.807,15.685,60.078,15.685z"/>
			<path id="Fill-7" fill="#742A24" d="M105.951,2l2.451,0.203c0.307,0,0.749-0.067,1.327-0.203c1.022,0,1.532,0.33,1.532,0.99
				c-0.374,1.778-0.579,3.682-0.612,5.713c-0.052,0.796-0.528,1.193-1.43,1.193c-0.732-0.118-1.686-0.177-2.86-0.177
				c-1.005,0-1.898,0.085-2.681,0.254c-0.052,1.405-0.248,3.081-0.587,5.027c0,0.322,0.203,0.508,0.612,0.559
				c0.749,0.085,2.655,0.127,5.72,0.127c1.498,0,2.826-0.229,3.983-0.686c0.272,0,0.409,0.229,0.409,0.686
				c0,0.542-0.196,1.151-0.589,1.828c-0.459,0.744-0.877,1.117-1.251,1.117c-0.375,0-3.549-0.339-9.523-1.016
				c-0.938-0.118-1.404-0.524-1.404-1.219c0.271-1.878,0.408-3.317,0.408-4.316c0-0.998-0.034-2.099-0.103-3.301
				c0-0.541,0.341-0.812,1.022-0.812c0.203,0,0.383,0.025,0.535,0.076c0.067-0.034,0.128-0.059,0.18-0.076
				c0.322-0.135,0.798-0.203,1.429-0.203c0.784,0,1.839,0.034,3.166,0.101c0.578,0,0.853-0.169,0.818-0.508
				c0.034-1.168,0.067-2.115,0.103-2.843c0-0.407-0.205-0.61-0.613-0.61c-0.17-0.067-0.478-0.101-0.92-0.101
				c-1.72,0-3.625,0.144-5.72,0.431c-0.612,0-0.92-0.304-0.92-0.914c0-0.643,0.341-1.015,1.022-1.117L105.951,2z M98.086,13.654
				c0.715,0.745,1.43,1.228,2.145,1.448c0.204,0.067,0.308,0.194,0.308,0.38c0,0.322-0.308,0.703-0.919,1.143
				c-0.479,0.322-0.988,0.482-1.533,0.482c-0.102,0-0.188-0.194-0.255-0.584c-0.085-0.507-0.171-1.32-0.255-2.437
				C97.576,13.798,97.746,13.654,98.086,13.654z M95.431,0.756c0.698,0,1.047,0.372,1.047,1.117c0,0.356-0.153,0.703-0.461,1.041
				c-0.815,1.117-1.83,2.226-3.038,3.326c0.493,0.339,0.911,0.66,1.251,0.965c0.546-0.609,1.081-1.193,1.61-1.752
				c0.204-0.22,0.416-0.33,0.638-0.33c0.307,0,0.57,0.127,0.791,0.381c0.204,0.237,0.308,0.558,0.308,0.965
				c0,0.051-0.171,0.245-0.513,0.584c-1.071,1.05-2.135,2.056-3.19,3.021c-0.188,0.203-0.281,0.347-0.281,0.432
				c0,0.288,0.086,0.432,0.255,0.432c0.512,0.05,1.15,0.076,1.916,0.076c0.715,0,1.234-0.051,1.558-0.153
				c0.17-0.016,0.256-0.101,0.256-0.254c-0.138-0.558-0.273-1.108-0.408-1.65V8.881c0-0.508,0.305-0.778,0.918-0.813
				c0.476,0,0.783,0.305,0.92,0.914c0.17,0.695,0.357,1.414,0.562,2.159c0.118,0.186,0.179,0.423,0.179,0.711
				c0,0.592-0.281,0.888-0.842,0.888c-0.461-0.033-0.903-0.067-1.328-0.101c-0.408,0.085-0.826,0.152-1.252,0.203
				c0.018,0.101,0.024,0.203,0.024,0.304c-0.05,0.644-0.075,1.219-0.075,1.727l0.204,2.463c0,1.134-0.383,1.701-1.149,1.701
				c-0.612,0-0.918-0.567-0.918-1.701c0.084-1.066,0.127-1.887,0.127-2.463c0-0.508-0.043-1.083-0.127-1.727
				c0-0.135,0.016-0.262,0.051-0.38c-0.358-0.017-0.715-0.026-1.073-0.026c-0.562,0-1.106,0.043-1.634,0.127
				c-0.885,0-1.328-0.338-1.328-1.015c0-0.271,0.077-0.491,0.23-0.661c0.815-0.914,1.625-1.828,2.426-2.742
				C91.958,7.806,91.098,7.4,90.503,7.23c-0.323-0.084-0.486-0.279-0.486-0.584c0-0.253,0.146-0.482,0.435-0.685
				c0.477-0.271,0.953-0.66,1.431-1.168c1.055-0.965,2.034-2.167,2.937-3.605C94.989,0.9,95.193,0.756,95.431,0.756z M92.776,13.984
				c0.203,0,0.307,0.127,0.307,0.381c0,0.136-0.043,0.356-0.128,0.66c-0.204,0.914-0.409,1.642-0.612,2.184
				c-0.188,0.339-0.35,0.508-0.487,0.508c-0.646,0-1.209-0.186-1.684-0.559c-0.579-0.457-0.868-0.846-0.868-1.168
				c0-0.304,0.102-0.473,0.307-0.508c0.545-0.084,0.971-0.194,1.276-0.33C91.346,14.966,91.974,14.577,92.776,13.984z"/>
			<path id="Fill-9" fill="#742A24" d="M139.26,12.436c0.749,0,1.124,0.339,1.124,1.016c0,0.355-0.067,0.592-0.204,0.711
				c-1.566,0.812-2.418,1.218-2.554,1.218c-0.476,0-0.715-0.203-0.715-0.609c0-0.051,0.373-0.618,1.123-1.701
				C138.323,12.647,138.733,12.436,139.26,12.436 M134.971,11.749c0.681,0,1.021,0.297,1.021,0.889c0,0.356-0.068,0.593-0.204,0.711
				c-1.379,1.016-2.128,1.524-2.247,1.524c-0.476,0-0.715-0.169-0.715-0.508c0-0.068,0.34-0.745,1.022-2.032
				C134.118,11.944,134.493,11.749,134.971,11.749 M129.454,4.335l3.371,0.077c0.443,0,0.834,0.059,1.174,0.177
				c0.308,0.085,0.461,0.263,0.461,0.534c0,0.474-0.205,0.71-0.612,0.71c-2.3,0-3.934,0.136-4.902,0.407
				c-0.545,0-0.819-0.263-0.819-0.787c0-0.22,0.112-0.457,0.332-0.711C128.714,4.472,129.046,4.335,129.454,4.335 M128.946,11.954
				c0.815,0,1.224,0.431,1.224,1.294c-0.408,0.881-0.825,1.668-1.25,2.362c2.008,0.034,3.89,0.195,5.644,0.482
				c1.854,0.271,3.251,0.406,4.187,0.406c1.09,0,2.351-0.236,3.78-0.71c0.271,0,0.408,0.203,0.408,0.609
				c0,0.423-0.298,1.024-0.895,1.803c-0.646,0.778-1.233,1.168-1.762,1.168c-0.221,0-0.51-0.051-0.868-0.153
				c-4.92-1.32-8.103-1.98-9.55-1.98c-0.613,0-1.43,0.093-2.452,0.279c-0.815,0-1.224-0.338-1.224-1.016
				c0-0.084,0.058-0.194,0.177-0.33c0.444-0.558,0.75-0.998,0.92-1.32c0.289-0.491,0.537-1.117,0.741-1.879
				C128.111,12.291,128.416,11.954,128.946,11.954 M127.718,6.952c1.431,0,3.508,0.067,6.23,0.203
				c0.392-0.271,0.699-0.406,0.92-0.406c1.089,0,1.634,0.406,1.634,1.218c0,0.136-0.187,0.314-0.561,0.533
				c-1.175,0.915-2.205,1.981-3.09,3.2c-0.289,0.288-0.64,0.431-1.047,0.431c-0.613,0-0.921-0.237-0.921-0.711
				c0.613-0.812,1.432-1.752,2.452-2.818c-2.537,0-4.716,0.093-6.537,0.279c-0.477,0-0.715-0.169-0.715-0.507
				C126.084,7.426,126.628,6.952,127.718,6.952 M120.159,14.466c0.648,0.136,1.124,0.203,1.432,0.203c0.9,0,2.024-0.744,3.37-2.234
				c0.272,0,0.408,0.178,0.408,0.533c0,0.457-0.46,1.329-1.379,2.615c-0.902,1.355-1.702,2.032-2.399,2.032
				c-0.494,0-0.902-0.22-1.227-0.66c-0.408-0.525-0.613-1.143-0.613-1.854C119.751,14.679,119.889,14.466,120.159,14.466
				 M130.988,0.452c0.424,0,0.655,0.177,0.688,0.533c0.204,0,0.417,0.085,0.64,0.254c1.906,1.286,3.591,2.302,5.055,3.047
				c1.278,0.66,2.401,1.117,3.371,1.371c0.715,0.169,1.447,0.296,2.196,0.381c0.408,0.017,0.612,0.161,0.612,0.431
				c0,0.406-0.484,0.914-1.454,1.524c-0.494,0.254-1.064,0.381-1.712,0.381c-0.545,0-1.038-0.144-1.48-0.432
				c-0.664-0.457-1.729-1.244-3.193-2.361c-2.451-1.93-4.017-3.115-4.696-3.555c-1.822,1.828-3.355,3.191-4.598,4.088
				c-1.175,0.812-2.188,1.439-3.037,1.879c-0.563,0.254-1.021,0.381-1.38,0.381c-0.562,0-1.133-0.22-1.711-0.661
				c-0.766-0.575-1.148-1.066-1.148-1.472c0.066-0.271,0.313-0.407,0.74-0.407c1.191-0.05,2.203-0.211,3.037-0.482
				c1.243-0.406,2.556-1.049,3.935-1.93c1.326-0.846,2.502-1.768,3.522-2.767C130.733,0.519,130.937,0.452,130.988,0.452"/>
			<path id="Fill-11" fill="#742A24" d="M161.334,13.654c0.153,0,0.323,0.034,0.512,0.102c0.203,0,0.306-0.068,0.306-0.204v-0.584
				c0-0.152-0.067-0.228-0.205-0.228c-0.22-0.067-0.526-0.102-0.92-0.102c-0.271,0-0.408,0.077-0.408,0.229
				c0,0.203-0.067,0.398-0.203,0.584c0,0.203,0.136,0.305,0.408,0.305C160.977,13.688,161.147,13.654,161.334,13.654 M161.538,5.732
				c0.494,0,1.037,0.034,1.636,0.102c0.203,0,0.305-0.068,0.305-0.203c0-0.339,0.035-0.576,0.103-0.711
				c0-0.136-0.103-0.204-0.307-0.204c-0.783-0.067-1.94-0.101-3.472-0.101c-0.342,0-0.513,0.068-0.513,0.203
				c0,0.254-0.067,0.491-0.202,0.711c0,0.203,0.135,0.305,0.407,0.305C160.073,5.766,160.756,5.732,161.538,5.732 M159.7,11.318
				c0.153,0,0.306,0.034,0.459,0.102c0.153,0.067,0.375,0.101,0.664,0.101h0.74c0.17,0,0.366,0.034,0.588,0.102
				c0.221,0,0.493-0.068,0.817-0.203c0.476,0,0.715,0.271,0.715,0.812c0,0.017-0.019,0.051-0.051,0.102
				c-0.052,0.085-0.086,0.237-0.103,0.457c-0.035,0.321-0.052,0.66-0.052,1.015v0.457c0,0.559-0.196,0.838-0.586,0.838
				c-0.58-0.152-1.098-0.228-1.559-0.228c-0.63,0-1.029,0.017-1.199,0.051c-0.155,0.017-0.324,0.076-0.513,0.177
				c-0.426,0-0.637-0.245-0.637-0.736c0.135-0.508,0.203-0.948,0.203-1.32c0-0.288-0.068-0.626-0.203-1.016
				C158.986,11.555,159.223,11.318,159.7,11.318 M161.538,15.482c0.816,0,1.736,0.034,2.759,0.102c0.203,0,0.307-0.068,0.307-0.203
				c0-1.93,0.033-3.318,0.101-4.165c0-0.135-0.137-0.203-0.407-0.203c-1.261-0.067-3.101-0.101-5.517-0.101
				c-0.408,0-0.612,0.068-0.612,0.203c0,1.49-0.033,2.878-0.103,4.164c0,0.203,0.137,0.305,0.409,0.305
				C159.359,15.516,160.381,15.482,161.538,15.482 M157.045,9.49c0.187,0,0.383,0.042,0.588,0.127
				c0.185,0.068,0.467,0.101,0.842,0.101h3.421c0.766,0,1.668,0.035,2.708,0.102c0.306,0,0.679-0.067,1.123-0.203
				c0.613,0,0.919,0.296,0.919,0.889c0,0.017-0.025,0.093-0.078,0.228c-0.101,0.187-0.17,0.559-0.203,1.117
				c-0.086,0.711-0.129,1.473-0.129,2.285c0,0.475,0.035,1.135,0.104,1.981c0,0.593-0.274,0.889-0.819,0.889
				c-1.48-0.204-2.808-0.305-3.982-0.305c-1.668,0-2.731,0.034-3.19,0.101c-0.394,0.018-0.862,0.085-1.405,0.204
				c-0.545,0-0.817-0.229-0.817-0.686c0.204-1.168,0.307-2.175,0.307-3.021c0-0.796-0.103-1.761-0.307-2.895
				C156.125,9.795,156.432,9.49,157.045,9.49 M158.168,3.218c0.187,0,0.383,0.035,0.588,0.102c0.187,0.051,0.476,0.076,0.866,0.076
				h2.119c0.494,0,1.074,0.034,1.737,0.102c0.255,0,0.595-0.059,1.021-0.178c0.612,0,0.92,0.305,0.92,0.914l-0.076,0.076
				c-0.086,0.102-0.155,0.271-0.205,0.508c-0.084,0.356-0.127,0.72-0.127,1.092c0,0.101,0.033,0.254,0.101,0.457
				c0,0.593-0.271,0.889-0.815,0.889c-0.818-0.169-1.567-0.263-2.248-0.28v0.178c0,0.051-0.026,0.119-0.076,0.203
				c-0.019,0.034-0.034,0.068-0.051,0.102c1.6-0.068,2.971-0.102,4.11-0.102l1.737-0.203c0.339,0,0.509,0.169,0.509,0.508
				c0,0.355-0.177,0.711-0.535,1.066c-0.476,0.441-0.979,0.66-1.508,0.66c-0.646-0.152-1.437-0.27-2.373-0.355
				c-1.158-0.102-2.172-0.152-3.039-0.152c-1.276,0-2.385,0.05-3.319,0.152c-0.613,0.051-1.345,0.169-2.195,0.355
				c-0.614,0-0.92-0.262-0.92-0.787c0-0.254,0.154-0.524,0.461-0.812c0.322-0.288,0.611-0.432,0.867-0.432s0.578,0.043,0.971,0.127
				c0.578,0.068,1.191,0.102,1.837,0.102c0.614-0.034,1.209-0.059,1.788-0.077V7.154V6.977c-0.545,0.017-0.918,0.043-1.124,0.076
				c-0.271,0.018-0.613,0.085-1.021,0.204c-0.546,0-0.816-0.229-0.816-0.686c0.134-0.575,0.203-1.083,0.203-1.523
				c0-0.271-0.069-0.618-0.203-1.041C157.352,3.481,157.622,3.218,158.168,3.218 M161.334,17.513c2.213,0,4.663,0.068,7.354,0.203
				c0.204,0,0.305-0.101,0.305-0.304c0-6.585,0.035-11.316,0.104-14.194c0-0.219-0.104-0.33-0.308-0.33
				c-3.252-0.067-8.018-0.101-14.299-0.101c-0.41,0-0.612,0.11-0.612,0.33c0,5.061-0.068,9.801-0.205,14.219
				c0,0.254,0.17,0.38,0.512,0.38C156.229,17.582,158.611,17.513,161.334,17.513 M152.551,1.086c0.22,0,0.441,0.025,0.664,0.076
				c0.221,0.068,0.545,0.101,0.971,0.101h8.273c1.854,0,4.032,0.035,6.534,0.102c0.324,0,0.733-0.034,1.228-0.102
				c0.679,0,1.021,0.314,1.021,0.94c0,0.068-0.024,0.245-0.076,0.533c-0.103,0.525-0.18,1.507-0.229,2.945
				c-0.069,1.879-0.102,3.885-0.102,6.018c0,1.642,0.032,3.859,0.102,6.652c0,0.677-0.307,1.016-0.92,1.016
				c-3.2-0.22-6.094-0.33-8.682-0.33c-3.199,0-5.228,0.042-6.076,0.127c-0.767,0.033-1.669,0.135-2.707,0.304
				c-0.613,0-0.92-0.338-0.92-1.015c0.205-2.928,0.307-5.485,0.307-7.668c0-2.454-0.102-5.383-0.307-8.785
				C151.631,1.39,151.938,1.086,152.551,1.086"/>
			<path id="Fill-13" fill="#742A24" d="M192.346,3.219l-0.052,0.939c0.886,0.051,1.83,0.119,2.834,0.204
				c0.018-0.254,0.026-0.474,0.026-0.661c0-0.253-0.17-0.38-0.51-0.38C194.2,3.253,193.436,3.219,192.346,3.219z M192.243,5.758
				l-0.025,0.635c0.63,0.017,1.337,0.042,2.119,0.076c0.512,0,0.749-0.144,0.715-0.432V5.961
				C194.151,5.86,193.213,5.791,192.243,5.758z M187.98,15.381h6.562c0.051,0,0.104,0.009,0.154,0.026
				c0-0.237,0.016-0.449,0.05-0.635c0-0.136-0.101-0.203-0.306-0.203c-1.327-0.068-3.27-0.102-5.822-0.102
				c-0.409,0-0.613,0.068-0.613,0.203C188.004,14.924,187.995,15.161,187.98,15.381z M190.966,17.819
				c1.022,0,2.146,0.034,3.371,0.101c0.204,0,0.308-0.101,0.308-0.305V16.6c-2.997,0.017-5.252,0.119-6.769,0.305
				c-0.016,0.22-0.042,0.423-0.076,0.609c0,0.271,0.171,0.406,0.512,0.406C189.061,17.853,189.946,17.819,190.966,17.819z
				 M186.677,12.867c0.222,0,0.442,0.035,0.663,0.102c0.223,0.068,0.545,0.102,0.972,0.102h3.549c0.783,0,1.711,0.025,2.784,0.076
				c0.321,0,0.73-0.059,1.225-0.178c0.681,0,1.021,0.339,1.021,1.016c0,0.017-0.025,0.076-0.076,0.177
				c-0.104,0.153-0.18,0.457-0.23,0.914c-0.067,0.593-0.102,1.236-0.102,1.93c0,0.356,0.034,0.838,0.102,1.447
				c0,0.677-0.306,1.016-0.92,1.016c-1.736-0.22-3.302-0.33-4.698-0.33c-1.565,0-2.553,0.042-2.962,0.127
				c-0.374,0.051-0.816,0.152-1.327,0.305c-0.612,0-0.92-0.314-0.92-0.94c0.204-0.965,0.308-1.811,0.308-2.539
				c0-0.643-0.104-1.422-0.308-2.336C185.757,13.164,186.065,12.867,186.677,12.867z M190.151,1.873
				c0.033-0.676,0.374-1.015,1.02-1.015c0.802,0,1.209,0.347,1.228,1.041l2.654,0.101c0.256,0,0.631-0.042,1.123-0.127
				c0.887,0,1.328,0.238,1.328,0.711c-0.137,0.645-0.255,1.304-0.356,1.981c1.242,0.101,2.313,0.152,3.218,0.152
				c0.68,0,1.497-0.127,2.451-0.381c0.204,0,0.305,0.263,0.305,0.787c0,0.508-0.271,1.058-0.815,1.651
				c-0.375,0.389-0.716,0.584-1.021,0.584c-0.495,0-1.107-0.144-1.839-0.432c-0.749-0.27-1.559-0.499-2.426-0.686
				c-0.018,0.271-0.026,0.542-0.026,0.813c-0.05,0.609-0.46,0.914-1.225,0.914c-0.953-0.118-2.153-0.186-3.602-0.203l-0.05,0.939
				h3.038c0.629,0.051,0.945,0.28,0.945,0.686c0,0.677-0.384,1.016-1.15,1.016l-2.884-0.229l-0.052,0.736h5.593
				c0.611,0.068,0.919,0.305,0.919,0.711c0,0.678-0.375,1.016-1.124,1.016l-6.64-0.305c-2.45,0-4.527,0.136-6.229,0.406
				c-0.477,0-0.715-0.236-0.715-0.71c0-0.322,0.109-0.61,0.332-0.864c0.17-0.219,0.366-0.33,0.587-0.33l1.021,0.076h4.571V10.1
				c-1.277,0.034-2.357,0.169-3.243,0.406c-0.476,0-0.715-0.228-0.715-0.685c0-0.339,0.111-0.635,0.332-0.889
				c0.17-0.22,0.366-0.33,0.587-0.33l1.022,0.101h1.966V7.789c-1.533,0.034-2.903,0.127-4.111,0.28
				c-0.477,0-0.716-0.237-0.716-0.711c0-0.44,0.171-0.702,0.511-0.787c0.972-0.136,2.366-0.204,4.189-0.204h0.076V5.733
				c-1.687,0.017-3.328,0.101-4.929,0.254c-1.005,0.085-2.554,0.507-4.646,1.269c-0.75,0-1.124-0.262-1.124-0.787
				c0-0.338,0.153-0.626,0.46-0.863c0.374-0.389,0.868-0.584,1.479-0.584c3.745-0.559,6.656-0.864,8.733-0.914l-0.025-0.889
				c-1.311,0.051-2.716,0.144-4.214,0.279c-0.408,0-0.611-0.237-0.611-0.711c0-0.457,0.237-0.719,0.715-0.787L190.151,1.873z"/>
			<path id="Fill-15" fill="#742A24" d="M224.481,16.828c0.066-0.017,0.136-0.025,0.203-0.025l4.086,0.101
				c0.222,0,0.426,0.017,0.612,0.051c0.018-0.897,0.085-1.591,0.204-2.082c0-0.271-0.135-0.406-0.408-0.406
				c-1.275,0-2.843,0.034-4.697,0.101V16.828z M224.404,9.947c0.271-0.034,0.604-0.051,0.996-0.051c0.526,0,1.241,0.035,2.145,0.102
				c0.459,0,0.664-0.076,0.613-0.229c0.051-0.575,0.085-1.041,0.102-1.396c0-0.271-0.171-0.406-0.51-0.406
				c-0.171-0.068-0.477-0.102-0.92-0.102c-0.783,0-1.625,0.085-2.528,0.254C224.352,8.559,224.386,9.169,224.404,9.947z
				 M223.254,6.748c0.103,0,0.196,0.009,0.281,0.025c0.119-0.118,0.298-0.186,0.537-0.203l1.838-0.101l2.247,0.101
				c0.237,0,0.579-0.034,1.021-0.101c0.818,0,1.227,0.228,1.227,0.685c-0.323,1.084-0.494,2.235-0.512,3.453
				c-0.033,0.678-0.407,1.016-1.123,1.016c-0.477-0.135-1.09-0.203-1.839-0.203c-0.936,0-1.77,0.076-2.502,0.228
				c0.018,0.373,0.026,0.754,0.026,1.143c0.119-0.034,0.229-0.051,0.332-0.051l4.391,0.229c0.732-0.153,1.209-0.229,1.431-0.229
				c0.816,0,1.226,0.373,1.226,1.117c-0.239,0.559-0.434,1.143-0.587,1.752c-0.018,0.356-0.026,1.025-0.026,2.006
				c0,0.559-0.306,0.838-0.919,0.838c-0.221,0-0.392-0.034-0.51-0.102c-2.503,0-4.316,0.119-5.44,0.356
				c-0.017,0.118-0.043,0.228-0.075,0.33c-0.153,0.355-0.494,0.533-1.022,0.533c-0.545,0-0.816-0.279-0.816-0.838
				c0.136-1.608,0.203-3.275,0.203-5.002c0-1.523-0.17-3.512-0.511-5.966C222.13,7.087,222.505,6.748,223.254,6.748z M214.982,4.234
				l1.839,0.103c0.441,0,0.834,0.051,1.174,0.152c0.306,0.085,0.46,0.263,0.46,0.533c0,0.474-0.204,0.711-0.613,0.711
				c-1.584,0-2.707,0.136-3.371,0.407c-0.545,0-0.816-0.263-0.816-0.788c0-0.219,0.11-0.457,0.332-0.711
				C214.241,4.37,214.573,4.234,214.982,4.234z M213.347,8.17v0.736c0.068-0.016,0.137-0.025,0.204-0.025l3.575,0.101
				c0.17,0,0.332,0.009,0.485,0.026c0.016-0.153,0.024-0.288,0.024-0.407c0-0.355-0.17-0.533-0.51-0.533
				c-0.205-0.067-0.579-0.101-1.124-0.101C215.185,7.967,214.3,8.035,213.347,8.17z M213.295,10.76v0.482
				c0.358-0.084,0.818-0.127,1.379-0.127c0.563,0,1.312,0.034,2.247,0.102c0.443,0,0.656-0.127,0.639-0.381v-0.432
				C215.655,10.421,214.233,10.54,213.295,10.76z M215.084,6.367l2.451,0.203c0.238,0,0.578-0.067,1.021-0.203
				c0.817,0,1.227,0.263,1.227,0.787c-0.324,1.49-0.494,3.09-0.511,4.799c-0.034,0.677-0.408,1.016-1.124,1.016
				c-0.493-0.068-1.133-0.102-1.915-0.102c-1.157,0-2.162,0.093-3.014,0.279c-0.017,0.339-0.034,0.686-0.051,1.041
				c0.068-0.016,0.127-0.025,0.179-0.025l4.289,0.102c0.427,0,0.826,0.059,1.2,0.177c0.29,0.085,0.436,0.271,0.436,0.559
				c0,0.457-0.204,0.685-0.613,0.685c-2.571,0-4.426,0.119-5.567,0.356c-0.016,0.22-0.034,0.44-0.05,0.66
				c0,0.271,0.169,0.406,0.51,0.406c0.664-0.135,1.464-0.203,2.401-0.203c0.527,0,1.564-0.034,3.115-0.101
				c0.34,0,0.511,0.144,0.511,0.431c0,0.508-0.146,0.88-0.436,1.117c-0.271,0.186-0.604,0.28-0.995,0.28
				c-0.767-0.068-1.389-0.102-1.863-0.102c-1.005,0-2.001,0.068-2.989,0.203c-0.527,0.051-0.961,0.153-1.301,0.305
				c-0.188,0.067-0.316,0.102-0.383,0.102c-0.479,0-0.715-0.263-0.715-0.788c0-0.389,0.109-1.057,0.33-2.005
				c0.119-1.083,0.18-2.218,0.18-3.403c0-0.711-0.026-1.726-0.076-3.047c-0.085-1.371-0.128-2.285-0.128-2.742
				c0-0.338,0.271-0.508,0.816-0.508c0.153,0,0.299,0.009,0.436,0.026c0.101-0.051,0.229-0.085,0.382-0.102L215.084,6.367z
				 M215.901,0.756c0.545,0,0.816,0.237,0.816,0.711v0.101h0.104c0.186,0,0.425,0.144,0.715,0.432l1.838,1.32
				c0.102,0.119,0.178,0.246,0.229,0.381c0.086-0.389,0.417-0.584,0.996-0.584c0.272,0,0.469,0.06,0.587,0.178
				c0.204,0.136,0.384,0.203,0.536,0.203c0.886-0.118,2.043-0.178,3.474-0.178h0.306c-0.085-0.44-0.221-0.846-0.409-1.219
				c0-0.897,0.444-1.345,1.328-1.345c0.954,0,1.43,0.415,1.43,1.244c-0.17,0.474-0.306,0.923-0.407,1.346
				c1.531,0.067,2.893,0.186,4.086,0.355l1.327-0.305c0.612,0,0.92,0.238,0.92,0.711c0,0.136-0.068,0.288-0.205,0.457
				c-0.323,0.559-0.563,1.422-0.715,2.59c0,0.542-0.272,0.813-0.816,0.813c-0.546,0-0.818-0.237-0.818-0.711
				c0-0.745,0.068-1.413,0.204-2.006c-1.14-0.288-2.569-0.432-4.29-0.432c-2.077,0-3.846,0.238-5.31,0.711
				c0,1.134-0.069,1.82-0.205,2.057c-0.136,0.322-0.443,0.482-0.919,0.482c-0.408,0-0.613-0.135-0.613-0.406
				c0-1.286-0.136-2.429-0.409-3.428c-0.034,0.322-0.237,0.483-0.611,0.483c-0.239,0-0.512-0.102-0.817-0.305l-2.018-1.193
				c-0.17-0.136-0.28-0.271-0.332-0.407c-1.057,1.101-2.247,2.082-3.574,2.946c-0.597,0.406-1.108,0.609-1.533,0.609
				c-0.391,0-0.8-0.178-1.225-0.533c-0.409-0.321-0.613-0.66-0.613-1.016c0-0.304,0.204-0.465,0.613-0.482
				c1.14-0.237,2.179-0.626,3.114-1.168c1.022-0.525,1.957-1.253,2.81-2.184C215.662,0.832,215.798,0.756,215.901,0.756z"/>
		</g>
		<g id="EN" transform="translate(50.000000, 33.472200)">
			<path id="Fill-17" d="M5.844,5.053l0.947,0.239c-0.198,0.778-0.556,1.37-1.072,1.78C5.202,7.481,4.573,7.685,3.826,7.685
				c-0.771,0-1.398-0.157-1.882-0.471C1.462,6.901,1.094,6.446,0.842,5.849C0.589,5.253,0.463,4.614,0.463,3.93
				c0-0.746,0.143-1.396,0.427-1.951c0.285-0.555,0.689-0.976,1.216-1.264s1.105-0.434,1.736-0.434c0.716,0,1.317,0.184,1.807,0.547
				c0.488,0.365,0.828,0.879,1.021,1.539l-0.933,0.22c-0.166-0.521-0.407-0.9-0.723-1.138C4.698,1.212,4.301,1.093,3.823,1.093
				c-0.551,0-1.01,0.132-1.38,0.396S1.814,2.106,1.663,2.551C1.514,2.995,1.44,3.454,1.44,3.925c0,0.608,0.089,1.14,0.266,1.594
				c0.178,0.454,0.453,0.794,0.827,1.019c0.375,0.225,0.78,0.336,1.217,0.336c0.53,0,0.979-0.152,1.348-0.459
				C5.465,6.11,5.714,5.655,5.844,5.053"/>
			<path id="Fill-19" d="M8.796,7.563V0.405h0.879v2.568c0.41-0.475,0.928-0.713,1.553-0.713c0.384,0,0.717,0.076,1.001,0.227
				c0.283,0.152,0.485,0.361,0.608,0.629c0.122,0.266,0.183,0.653,0.183,1.161v3.286h-0.879V4.277c0-0.44-0.095-0.759-0.286-0.96
				c-0.189-0.199-0.46-0.3-0.808-0.3c-0.26,0-0.505,0.067-0.735,0.203c-0.229,0.135-0.393,0.317-0.491,0.549
				C9.724,4,9.675,4.319,9.675,4.726v2.837H8.796z"/>
			<path id="Fill-21" d="M18.705,7.563V6.801C18.302,7.387,17.753,7.68,17.06,7.68c-0.307,0-0.591-0.059-0.856-0.176
				s-0.463-0.264-0.591-0.441c-0.129-0.178-0.219-0.395-0.271-0.652c-0.036-0.173-0.055-0.445-0.055-0.82V2.377h0.879v2.875
				c0,0.459,0.019,0.769,0.055,0.929c0.055,0.231,0.172,0.413,0.351,0.545c0.179,0.131,0.401,0.196,0.664,0.196
				c0.264,0,0.512-0.066,0.742-0.201c0.23-0.137,0.395-0.319,0.491-0.553c0.096-0.232,0.144-0.569,0.144-1.012V2.377h0.879v5.186
				H18.705z"/>
			<path id="Fill-23" d="M21.819,7.563V2.377h0.791v0.738c0.381-0.57,0.932-0.855,1.65-0.855c0.313,0,0.6,0.056,0.861,0.169
				c0.263,0.112,0.458,0.259,0.59,0.442c0.13,0.182,0.221,0.398,0.272,0.648c0.033,0.163,0.049,0.448,0.049,0.855v3.188h-0.879
				V4.409c0-0.357-0.034-0.625-0.103-0.804c-0.068-0.177-0.189-0.317-0.363-0.424c-0.175-0.106-0.379-0.159-0.613-0.159
				c-0.375,0-0.696,0.119-0.969,0.355c-0.271,0.238-0.408,0.689-0.408,1.354v2.832H21.819z"/>
			<path id="Fill-25" d="M28.897,4.877c0,0.68,0.135,1.177,0.404,1.488c0.271,0.313,0.609,0.47,1.017,0.47
				c0.404,0,0.742-0.155,1.016-0.466s0.41-0.799,0.41-1.463c0-0.635-0.141-1.113-0.423-1.436c-0.281-0.322-0.621-0.484-1.018-0.484
				c-0.391,0-0.723,0.16-0.996,0.477C29.033,3.782,28.897,4.252,28.897,4.877 M28.168,7.993l0.855,0.127
				c0.036,0.264,0.135,0.456,0.298,0.576c0.218,0.162,0.516,0.244,0.893,0.244c0.407,0,0.723-0.082,0.943-0.244
				s0.371-0.391,0.449-0.684c0.045-0.179,0.066-0.555,0.063-1.128c-0.384,0.452-0.861,0.679-1.435,0.679
				c-0.713,0-1.265-0.258-1.655-0.771s-0.586-1.131-0.586-1.852c0-0.494,0.089-0.951,0.269-1.369
				c0.179-0.418,0.438-0.74,0.778-0.969c0.34-0.228,0.74-0.342,1.199-0.342c0.612,0,1.116,0.247,1.513,0.742V2.377h0.812V6.86
				c0,0.808-0.082,1.379-0.247,1.717c-0.164,0.337-0.424,0.603-0.781,0.798C31.18,9.569,30.74,9.667,30.22,9.667
				c-0.618,0-1.118-0.14-1.499-0.417C28.339,8.971,28.156,8.552,28.168,7.993"/>
			<path id="Fill-27" d="M40.519,7.563V4.532L37.76,0.405h1.152l1.411,2.158c0.26,0.404,0.503,0.807,0.728,1.211
				c0.215-0.375,0.475-0.796,0.78-1.265l1.388-2.104h1.104l-2.856,4.127v3.031H40.519z"/>
			<path id="Fill-29" d="M48.856,7.563V6.801C48.452,7.387,47.904,7.68,47.21,7.68c-0.307,0-0.591-0.059-0.856-0.176
				s-0.463-0.264-0.591-0.441c-0.129-0.178-0.219-0.395-0.271-0.652c-0.036-0.173-0.055-0.445-0.055-0.82V2.377h0.879v2.875
				c0,0.459,0.019,0.769,0.055,0.929c0.055,0.231,0.172,0.413,0.351,0.545c0.179,0.131,0.401,0.196,0.664,0.196
				c0.264,0,0.512-0.066,0.742-0.201c0.23-0.137,0.395-0.319,0.491-0.553c0.096-0.232,0.144-0.569,0.144-1.012V2.377h0.879v5.186
				H48.856z"/>
			<path id="Fill-31" d="M55.28,4.96c-0.318,0.13-0.797,0.241-1.436,0.332c-0.361,0.052-0.616,0.11-0.767,0.176
				c-0.149,0.065-0.265,0.16-0.347,0.285c-0.081,0.126-0.122,0.265-0.122,0.418c0,0.233,0.089,0.431,0.267,0.586
				c0.177,0.156,0.437,0.233,0.778,0.233c0.338,0,0.641-0.073,0.903-0.221c0.264-0.148,0.458-0.352,0.581-0.608
				c0.095-0.199,0.142-0.492,0.142-0.88V4.96z M55.353,6.923c-0.325,0.277-0.638,0.472-0.94,0.586
				c-0.301,0.114-0.624,0.171-0.969,0.171c-0.569,0-1.007-0.139-1.313-0.418c-0.308-0.277-0.459-0.634-0.459-1.066
				c0-0.254,0.057-0.485,0.173-0.695s0.267-0.379,0.454-0.506c0.187-0.127,0.397-0.223,0.632-0.288
				c0.173-0.045,0.433-0.089,0.782-0.132c0.709-0.084,1.231-0.186,1.566-0.303c0.003-0.121,0.005-0.196,0.005-0.229
				c0-0.358-0.083-0.61-0.249-0.757c-0.225-0.199-0.558-0.299-1.001-0.299c-0.414,0-0.719,0.074-0.916,0.219
				c-0.195,0.145-0.342,0.4-0.437,0.77l-0.859-0.119c0.078-0.367,0.207-0.664,0.387-0.891c0.179-0.227,0.438-0.4,0.775-0.521
				c0.338-0.123,0.731-0.184,1.177-0.184c0.443,0,0.803,0.053,1.079,0.156c0.277,0.104,0.48,0.234,0.61,0.393
				c0.131,0.158,0.221,0.358,0.274,0.598c0.028,0.15,0.044,0.421,0.044,0.812v1.173c0,0.816,0.018,1.334,0.056,1.549
				c0.037,0.217,0.111,0.424,0.222,0.623h-0.918C55.438,7.38,55.379,7.167,55.353,6.923z"/>
			<path id="Fill-33" d="M58.481,7.563V2.377h0.791v0.738c0.381-0.57,0.931-0.855,1.649-0.855c0.313,0,0.601,0.056,0.862,0.169
				c0.262,0.112,0.458,0.259,0.589,0.442c0.13,0.182,0.221,0.398,0.273,0.648c0.033,0.163,0.049,0.448,0.049,0.855v3.188h-0.879
				V4.409c0-0.357-0.034-0.625-0.104-0.804c-0.067-0.177-0.188-0.317-0.362-0.424c-0.176-0.106-0.379-0.159-0.613-0.159
				c-0.375,0-0.697,0.119-0.969,0.355c-0.272,0.238-0.408,0.689-0.408,1.354v2.832H58.481z"/>
			<path id="Fill-35" d="M73.941,5.053l0.946,0.239c-0.197,0.778-0.555,1.37-1.071,1.78c-0.517,0.408-1.146,0.612-1.893,0.612
				c-0.771,0-1.398-0.157-1.882-0.471c-0.482-0.313-0.851-0.769-1.103-1.365C68.686,5.253,68.56,4.614,68.56,3.93
				c0-0.746,0.143-1.396,0.427-1.951c0.285-0.555,0.689-0.976,1.216-1.264s1.105-0.434,1.736-0.434c0.716,0,1.317,0.184,1.807,0.547
				c0.488,0.365,0.828,0.879,1.021,1.539l-0.933,0.22c-0.166-0.521-0.407-0.9-0.723-1.138c-0.316-0.237-0.713-0.356-1.191-0.356
				c-0.551,0-1.01,0.132-1.38,0.396S69.91,2.106,69.76,2.551c-0.149,0.443-0.224,0.902-0.224,1.374c0,0.608,0.089,1.14,0.266,1.594
				c0.178,0.454,0.453,0.794,0.827,1.019c0.375,0.225,0.78,0.336,1.216,0.336c0.531,0,0.98-0.152,1.349-0.459
				C73.562,6.11,73.811,5.655,73.941,5.053"/>
			<path id="Fill-37" d="M76.892,7.563V0.405h0.879v2.568c0.41-0.475,0.929-0.713,1.554-0.713c0.384,0,0.717,0.076,1.001,0.227
				c0.282,0.152,0.484,0.361,0.607,0.629c0.122,0.266,0.184,0.653,0.184,1.161v3.286h-0.879V4.277c0-0.44-0.096-0.759-0.286-0.96
				c-0.19-0.199-0.46-0.3-0.809-0.3c-0.26,0-0.505,0.067-0.734,0.203c-0.229,0.135-0.394,0.317-0.491,0.549
				C77.821,4,77.771,4.319,77.771,4.726v2.837H76.892z"/>
			<path id="Fill-39" d="M83.394,7.563V2.377h0.791v0.787c0.202-0.369,0.388-0.611,0.56-0.729c0.171-0.117,0.358-0.176,0.563-0.176
				c0.296,0,0.597,0.095,0.903,0.283l-0.302,0.815c-0.216-0.127-0.431-0.19-0.646-0.19c-0.192,0-0.365,0.058-0.517,0.174
				c-0.153,0.115-0.264,0.275-0.328,0.48c-0.098,0.313-0.146,0.654-0.146,1.025v2.715H83.394z"/>
			<path id="Fill-41" d="M87.688,7.563h0.879V2.377h-0.879V7.563z M87.688,1.416h0.879V0.405h-0.879V1.416z"/>
			<path id="Fill-43" d="M90.504,6.015l0.869-0.138c0.049,0.349,0.185,0.617,0.407,0.802c0.224,0.187,0.535,0.278,0.936,0.278
				c0.404,0,0.703-0.082,0.897-0.246c0.196-0.165,0.293-0.358,0.293-0.579c0-0.199-0.086-0.354-0.258-0.47
				c-0.121-0.078-0.42-0.176-0.898-0.297c-0.645-0.162-1.092-0.304-1.341-0.423c-0.248-0.118-0.438-0.282-0.566-0.493
				c-0.128-0.209-0.193-0.441-0.193-0.695c0-0.231,0.054-0.445,0.159-0.643c0.106-0.197,0.25-0.359,0.432-0.49
				c0.138-0.102,0.324-0.187,0.56-0.256c0.236-0.07,0.49-0.105,0.76-0.105c0.406,0,0.764,0.059,1.071,0.176s0.535,0.275,0.682,0.477
				c0.146,0.199,0.247,0.468,0.302,0.803l-0.858,0.117c-0.039-0.268-0.152-0.476-0.339-0.625c-0.188-0.15-0.452-0.225-0.794-0.225
				c-0.404,0-0.692,0.067-0.864,0.2S91.5,3.473,91.5,3.653c0,0.112,0.036,0.215,0.107,0.307c0.071,0.095,0.185,0.173,0.336,0.234
				c0.088,0.032,0.348,0.107,0.777,0.225c0.621,0.166,1.055,0.302,1.301,0.408c0.246,0.105,0.439,0.26,0.579,0.461
				s0.21,0.453,0.21,0.752c0,0.293-0.086,0.568-0.257,0.828c-0.171,0.258-0.417,0.459-0.739,0.601
				c-0.323,0.141-0.687,0.212-1.094,0.212c-0.674,0-1.188-0.141-1.541-0.42C90.826,6.98,90.602,6.565,90.504,6.015"/>
			<path id="Fill-44_1_" d="M98.725,6.777l0.127,0.776c-0.248,0.053-0.469,0.078-0.664,0.078c-0.319,0-0.567-0.051-0.742-0.151
				c-0.176-0.101-0.3-0.233-0.371-0.397c-0.072-0.164-0.107-0.511-0.107-1.037V3.061h-0.645V2.377h0.645V1.092l0.874-0.526v1.812
				h0.884v0.684h-0.884v3.031c0,0.252,0.016,0.412,0.047,0.484c0.029,0.072,0.081,0.129,0.15,0.172c0.07,0.041,0.17,0.063,0.3,0.063
				C98.437,6.811,98.565,6.799,98.725,6.777"/>
			<path id="Fill-45" d="M100.539,7.563h0.879V2.377h-0.879V7.563z M100.539,1.416h0.879V0.405h-0.879V1.416z"/>
			<path id="Fill-46_1_" d="M107.016,4.96c-0.318,0.13-0.797,0.241-1.436,0.332c-0.361,0.052-0.616,0.11-0.767,0.176
				c-0.149,0.065-0.265,0.16-0.347,0.285c-0.081,0.126-0.122,0.265-0.122,0.418c0,0.233,0.089,0.431,0.267,0.586
				c0.177,0.156,0.437,0.233,0.778,0.233c0.338,0,0.641-0.073,0.903-0.221c0.264-0.148,0.458-0.352,0.581-0.608
				c0.095-0.199,0.142-0.492,0.142-0.88V4.96z M107.089,6.923c-0.325,0.277-0.638,0.472-0.94,0.586
				c-0.301,0.114-0.624,0.171-0.969,0.171c-0.57,0-1.007-0.139-1.313-0.418c-0.308-0.277-0.459-0.634-0.459-1.066
				c0-0.254,0.057-0.485,0.173-0.695s0.267-0.379,0.454-0.506c0.187-0.127,0.397-0.223,0.632-0.288
				c0.173-0.045,0.433-0.089,0.782-0.132c0.709-0.084,1.231-0.186,1.566-0.303c0.003-0.121,0.005-0.196,0.005-0.229
				c0-0.358-0.083-0.61-0.249-0.757c-0.225-0.199-0.558-0.299-1.001-0.299c-0.414,0-0.719,0.074-0.916,0.219
				c-0.195,0.145-0.342,0.4-0.437,0.77l-0.859-0.119c0.078-0.367,0.207-0.664,0.387-0.891c0.179-0.227,0.438-0.4,0.775-0.521
				c0.338-0.123,0.731-0.184,1.177-0.184c0.443,0,0.803,0.053,1.079,0.156c0.277,0.104,0.48,0.234,0.61,0.393
				c0.131,0.158,0.221,0.358,0.274,0.598c0.028,0.15,0.044,0.421,0.044,0.812v1.173c0,0.816,0.018,1.334,0.056,1.549
				c0.037,0.217,0.111,0.424,0.222,0.623h-0.918C107.174,7.38,107.115,7.167,107.089,6.923z"/>
			<path id="Fill-47" d="M110.217,7.563V2.377h0.791v0.738c0.381-0.57,0.931-0.855,1.649-0.855c0.313,0,0.601,0.056,0.862,0.169
				c0.262,0.112,0.458,0.259,0.589,0.442c0.13,0.182,0.221,0.398,0.273,0.648c0.033,0.163,0.049,0.448,0.049,0.855v3.188h-0.879
				V4.409c0-0.357-0.034-0.625-0.104-0.804c-0.067-0.177-0.188-0.317-0.362-0.424c-0.176-0.106-0.379-0.159-0.613-0.159
				c-0.375,0-0.697,0.119-0.969,0.355c-0.272,0.238-0.408,0.689-0.408,1.354v2.832H110.217z"/>
			<path id="Fill-48_1_" d="M125.267,0.405h0.946v4.137c0,0.719-0.08,1.289-0.243,1.713c-0.162,0.424-0.456,0.768-0.882,1.032
				c-0.425,0.265-0.982,0.398-1.673,0.398c-0.67,0-1.219-0.115-1.645-0.347c-0.426-0.23-0.731-0.565-0.913-1.004
				c-0.182-0.438-0.274-1.035-0.274-1.793V0.405h0.948v4.131c0,0.621,0.057,1.08,0.173,1.374c0.116,0.295,0.314,0.522,0.597,0.683
				c0.28,0.158,0.626,0.238,1.031,0.238c0.697,0,1.193-0.158,1.49-0.474c0.296-0.315,0.444-0.923,0.444-1.821V0.405z"/>
			<path id="Fill-49" d="M128.628,7.563V2.377h0.791v0.738c0.381-0.57,0.932-0.855,1.65-0.855c0.313,0,0.6,0.056,0.861,0.169
				c0.263,0.112,0.458,0.259,0.59,0.442c0.13,0.182,0.221,0.398,0.272,0.648c0.033,0.163,0.049,0.448,0.049,0.855v3.188h-0.879
				V4.409c0-0.357-0.034-0.625-0.103-0.804c-0.068-0.177-0.189-0.317-0.363-0.424c-0.175-0.106-0.379-0.159-0.613-0.159
				c-0.375,0-0.696,0.119-0.969,0.355c-0.271,0.238-0.408,0.689-0.408,1.354v2.832H128.628z"/>
			<path id="Fill-50_1_" d="M135.145,7.563h0.879V2.377h-0.879V7.563z M135.145,1.416h0.879V0.405h-0.879V1.416z"/>
			<path id="Fill-51" d="M139.752,7.563l-1.974-5.186h0.929l1.112,3.105c0.121,0.335,0.231,0.684,0.332,1.045
				c0.079-0.273,0.188-0.602,0.328-0.986l1.152-3.164h0.903l-1.964,5.186H139.752z"/>
			<path id="Fill-52_1_" d="M144.926,4.472h2.896c-0.04-0.437-0.149-0.763-0.333-0.981c-0.279-0.338-0.642-0.508-1.088-0.508
				c-0.404,0-0.744,0.135-1.019,0.405S144.954,4.019,144.926,4.472 M147.812,5.893l0.908,0.112c-0.145,0.53-0.408,0.942-0.796,1.235
				c-0.389,0.293-0.882,0.439-1.484,0.439c-0.759,0-1.361-0.232-1.804-0.701c-0.445-0.467-0.667-1.121-0.667-1.965
				c0-0.873,0.225-1.549,0.674-2.031c0.449-0.481,1.032-0.723,1.748-0.723c0.693,0,1.26,0.236,1.699,0.708s0.659,1.136,0.659,1.992
				c0,0.053-0.003,0.131-0.006,0.235h-3.866c0.031,0.568,0.193,1.006,0.483,1.308c0.29,0.303,0.651,0.454,1.084,0.454
				c0.322,0,0.598-0.084,0.825-0.254C147.496,6.534,147.678,6.264,147.812,5.893"/>
			<path id="Fill-53" d="M150.764,7.563V2.377h0.791v0.787c0.202-0.369,0.388-0.611,0.56-0.729c0.17-0.117,0.358-0.176,0.563-0.176
				c0.296,0,0.598,0.095,0.902,0.283l-0.302,0.815c-0.215-0.127-0.43-0.19-0.645-0.19c-0.192,0-0.364,0.058-0.518,0.174
				c-0.153,0.115-0.262,0.275-0.328,0.48c-0.097,0.313-0.146,0.654-0.146,1.025v2.715H150.764z"/>
			<path id="Fill-54" d="M154.702,6.015l0.869-0.138c0.049,0.349,0.185,0.617,0.406,0.802c0.225,0.187,0.536,0.278,0.937,0.278
				c0.402,0,0.703-0.082,0.897-0.246c0.196-0.165,0.293-0.358,0.293-0.579c0-0.199-0.086-0.354-0.258-0.47
				c-0.121-0.078-0.42-0.176-0.898-0.297c-0.645-0.162-1.092-0.304-1.342-0.423c-0.248-0.118-0.437-0.282-0.565-0.493
				c-0.128-0.209-0.193-0.441-0.193-0.695c0-0.231,0.053-0.445,0.16-0.643c0.105-0.197,0.249-0.359,0.431-0.49
				c0.138-0.102,0.324-0.187,0.56-0.256c0.235-0.07,0.489-0.105,0.76-0.105c0.407,0,0.763,0.059,1.072,0.176
				c0.307,0.117,0.534,0.275,0.681,0.477c0.146,0.199,0.247,0.468,0.302,0.803l-0.858,0.117c-0.039-0.268-0.152-0.476-0.339-0.625
				c-0.188-0.15-0.452-0.225-0.794-0.225c-0.403,0-0.691,0.067-0.864,0.2s-0.259,0.29-0.259,0.47c0,0.112,0.035,0.215,0.107,0.307
				c0.071,0.095,0.184,0.173,0.336,0.234c0.088,0.032,0.348,0.107,0.777,0.225c0.622,0.166,1.055,0.302,1.302,0.408
				c0.245,0.105,0.438,0.26,0.578,0.461c0.139,0.201,0.21,0.453,0.21,0.752c0,0.293-0.085,0.568-0.257,0.828
				c-0.17,0.258-0.417,0.459-0.739,0.601c-0.323,0.141-0.687,0.212-1.094,0.212c-0.674,0-1.188-0.141-1.54-0.42
				C155.025,6.98,154.8,6.565,154.702,6.015"/>
			<path id="Fill-55" d="M161.008,7.563h0.879V2.377h-0.879V7.563z M161.008,1.416h0.879V0.405h-0.879V1.416z"/>
			<path id="Fill-56" d="M166.094,6.777l0.127,0.776c-0.247,0.053-0.47,0.078-0.664,0.078c-0.319,0-0.567-0.051-0.742-0.151
				c-0.176-0.101-0.3-0.233-0.371-0.397c-0.072-0.164-0.108-0.511-0.108-1.037V3.061h-0.644V2.377h0.644V1.092l0.874-0.526v1.812
				h0.885v0.684h-0.885v3.031c0,0.252,0.017,0.412,0.047,0.484s0.082,0.129,0.151,0.172c0.07,0.041,0.17,0.063,0.3,0.063
				C165.806,6.811,165.935,6.799,166.094,6.777"/>
			<path id="Fill-57" d="M167.865,9.56l-0.099-0.825c0.193,0.053,0.36,0.078,0.504,0.078c0.195,0,0.352-0.033,0.469-0.098
				c0.117-0.065,0.213-0.156,0.288-0.273c0.056-0.088,0.145-0.306,0.269-0.654c0.017-0.049,0.042-0.121,0.078-0.215l-1.968-5.195
				h0.946l1.079,3.003c0.141,0.381,0.267,0.782,0.376,1.2c0.102-0.402,0.223-0.797,0.362-1.181l1.108-3.022h0.879l-1.974,5.273
				c-0.212,0.57-0.376,0.963-0.492,1.178c-0.156,0.289-0.335,0.502-0.537,0.637s-0.442,0.201-0.724,0.201
				C168.261,9.666,168.073,9.632,167.865,9.56"/>
			<path id="Fill-58" d="M182.802,5.053l0.947,0.239c-0.198,0.778-0.556,1.37-1.072,1.78c-0.517,0.408-1.146,0.612-1.893,0.612
				c-0.771,0-1.398-0.157-1.881-0.471c-0.484-0.313-0.852-0.769-1.104-1.365c-0.253-0.596-0.379-1.235-0.379-1.919
				c0-0.746,0.143-1.396,0.428-1.951c0.284-0.555,0.688-0.976,1.215-1.264s1.104-0.434,1.736-0.434c0.716,0,1.317,0.184,1.807,0.547
				c0.488,0.365,0.828,0.879,1.021,1.539l-0.933,0.22c-0.166-0.521-0.408-0.9-0.723-1.138c-0.316-0.237-0.713-0.356-1.191-0.356
				c-0.55,0-1.01,0.132-1.379,0.396c-0.371,0.264-0.63,0.617-0.78,1.063c-0.148,0.443-0.224,0.902-0.224,1.374
				c0,0.608,0.089,1.14,0.265,1.594c0.179,0.454,0.454,0.794,0.828,1.019s0.78,0.336,1.217,0.336c0.53,0,0.979-0.152,1.348-0.459
				C182.423,6.11,182.672,5.655,182.802,5.053"/>
			<path id="Fill-59" d="M185.753,7.563V0.405h0.879v2.568c0.41-0.475,0.928-0.713,1.553-0.713c0.383,0,0.717,0.076,1.001,0.227
				c0.283,0.152,0.486,0.361,0.607,0.629c0.123,0.266,0.184,0.653,0.184,1.161v3.286h-0.879V4.277c0-0.44-0.096-0.759-0.285-0.96
				c-0.191-0.199-0.46-0.3-0.809-0.3c-0.262,0-0.506,0.067-0.734,0.203c-0.23,0.135-0.394,0.317-0.492,0.549
				c-0.097,0.231-0.146,0.55-0.146,0.957v2.837H185.753z"/>
			<path id="Fill-60" d="M195.575,4.96c-0.319,0.13-0.798,0.241-1.437,0.332c-0.36,0.052-0.617,0.11-0.766,0.176
				c-0.15,0.065-0.266,0.16-0.347,0.285c-0.081,0.126-0.122,0.265-0.122,0.418c0,0.233,0.089,0.431,0.266,0.586
				c0.177,0.156,0.438,0.233,0.779,0.233c0.339,0,0.64-0.073,0.902-0.221c0.265-0.148,0.457-0.352,0.581-0.608
				c0.096-0.199,0.143-0.492,0.143-0.88V4.96z M195.648,6.923c-0.324,0.277-0.638,0.472-0.938,0.586
				c-0.302,0.114-0.625,0.171-0.97,0.171c-0.569,0-1.009-0.139-1.313-0.418c-0.306-0.277-0.459-0.634-0.459-1.066
				c0-0.254,0.058-0.485,0.173-0.695c0.116-0.21,0.268-0.379,0.454-0.506c0.188-0.127,0.398-0.223,0.632-0.288
				c0.174-0.045,0.434-0.089,0.782-0.132c0.71-0.084,1.232-0.186,1.567-0.303c0.003-0.121,0.005-0.196,0.005-0.229
				c0-0.358-0.083-0.61-0.249-0.757c-0.226-0.199-0.56-0.299-1.001-0.299c-0.413,0-0.719,0.074-0.916,0.219
				c-0.196,0.145-0.342,0.4-0.438,0.77l-0.858-0.119c0.078-0.367,0.207-0.664,0.386-0.891c0.178-0.227,0.438-0.4,0.776-0.521
				c0.339-0.123,0.73-0.184,1.177-0.184c0.442,0,0.803,0.053,1.079,0.156c0.275,0.104,0.479,0.234,0.609,0.393
				c0.131,0.158,0.223,0.358,0.274,0.598c0.029,0.15,0.044,0.421,0.044,0.812v1.173c0,0.816,0.019,1.334,0.055,1.549
				c0.038,0.217,0.113,0.424,0.224,0.623h-0.918C195.734,7.38,195.675,7.167,195.648,6.923z"/>
			<path id="Fill-61" d="M198.777,7.563V2.377h0.791v0.738c0.381-0.57,0.931-0.855,1.649-0.855c0.313,0,0.601,0.056,0.863,0.169
				c0.261,0.112,0.458,0.259,0.588,0.442c0.129,0.182,0.221,0.398,0.273,0.648c0.032,0.163,0.049,0.448,0.049,0.855v3.188h-0.879
				V4.409c0-0.357-0.034-0.625-0.104-0.804c-0.067-0.177-0.188-0.317-0.363-0.424s-0.378-0.159-0.612-0.159
				c-0.374,0-0.697,0.119-0.97,0.355c-0.271,0.238-0.407,0.689-0.407,1.354v2.832H198.777z"/>
			<path id="Fill-62" d="M205.855,4.877c0,0.68,0.135,1.177,0.404,1.488c0.271,0.313,0.609,0.47,1.017,0.47
				c0.403,0,0.742-0.155,1.016-0.466s0.41-0.799,0.41-1.463c0-0.635-0.141-1.113-0.422-1.436c-0.282-0.322-0.621-0.484-1.02-0.484
				c-0.39,0-0.722,0.16-0.995,0.477C205.991,3.782,205.855,4.252,205.855,4.877 M205.126,7.993l0.855,0.127
				c0.036,0.264,0.135,0.456,0.298,0.576c0.218,0.162,0.515,0.244,0.893,0.244c0.408,0,0.722-0.082,0.943-0.244
				c0.221-0.162,0.371-0.391,0.449-0.684c0.046-0.179,0.065-0.555,0.063-1.128c-0.383,0.452-0.861,0.679-1.435,0.679
				c-0.713,0-1.265-0.258-1.655-0.771s-0.586-1.131-0.586-1.852c0-0.494,0.09-0.951,0.269-1.369s0.438-0.74,0.778-0.969
				c0.34-0.228,0.74-0.342,1.199-0.342c0.612,0,1.116,0.247,1.513,0.742V2.377h0.812V6.86c0,0.808-0.082,1.379-0.246,1.717
				c-0.165,0.337-0.426,0.603-0.781,0.798c-0.357,0.194-0.796,0.293-1.316,0.293c-0.618,0-1.118-0.14-1.499-0.417
				C205.297,8.971,205.115,8.552,205.126,7.993"/>
			<path id="Fill-63" d="M220.747,5.053l0.947,0.239c-0.198,0.778-0.556,1.37-1.072,1.78c-0.517,0.408-1.146,0.612-1.893,0.612
				c-0.771,0-1.398-0.157-1.881-0.471c-0.484-0.313-0.852-0.769-1.104-1.365c-0.253-0.596-0.379-1.235-0.379-1.919
				c0-0.746,0.143-1.396,0.428-1.951c0.284-0.555,0.688-0.976,1.215-1.264s1.104-0.434,1.736-0.434c0.716,0,1.317,0.184,1.807,0.547
				c0.488,0.365,0.828,0.879,1.021,1.539l-0.933,0.22c-0.166-0.521-0.408-0.9-0.723-1.138c-0.316-0.237-0.713-0.356-1.191-0.356
				c-0.55,0-1.01,0.132-1.379,0.396c-0.371,0.264-0.63,0.617-0.78,1.063c-0.148,0.443-0.224,0.902-0.224,1.374
				c0,0.608,0.089,1.14,0.265,1.594c0.179,0.454,0.454,0.794,0.828,1.019s0.78,0.336,1.216,0.336c0.531,0,0.98-0.152,1.349-0.459
				C220.368,6.11,220.617,5.655,220.747,5.053"/>
			<path id="Fill-64" d="M223.699,7.563V0.405h0.879v2.568c0.41-0.475,0.928-0.713,1.553-0.713c0.383,0,0.717,0.076,1.001,0.227
				c0.283,0.152,0.486,0.361,0.607,0.629c0.123,0.266,0.184,0.653,0.184,1.161v3.286h-0.879V4.277c0-0.44-0.096-0.759-0.285-0.96
				c-0.191-0.199-0.46-0.3-0.809-0.3c-0.262,0-0.506,0.067-0.734,0.203c-0.23,0.135-0.394,0.317-0.492,0.549
				c-0.097,0.231-0.146,0.55-0.146,0.957v2.837H223.699z"/>
			<path id="Fill-65" d="M230.216,7.563h0.879V2.377h-0.879V7.563z M230.216,1.416h0.879V0.405h-0.879V1.416z"/>
			<path id="Fill-66" d="M233.383,7.563V2.377h0.791v0.738c0.381-0.57,0.931-0.855,1.649-0.855c0.313,0,0.601,0.056,0.863,0.169
				c0.261,0.112,0.458,0.259,0.588,0.442c0.129,0.182,0.221,0.398,0.273,0.648c0.031,0.163,0.049,0.448,0.049,0.855v3.188h-0.879
				V4.409c0-0.357-0.034-0.625-0.104-0.804c-0.067-0.177-0.188-0.317-0.363-0.424s-0.379-0.159-0.612-0.159
				c-0.374,0-0.697,0.119-0.97,0.355c-0.271,0.238-0.407,0.689-0.407,1.354v2.832H233.383z"/>
			<path id="Fill-67" d="M240.461,4.877c0,0.68,0.135,1.177,0.404,1.488c0.271,0.313,0.609,0.47,1.017,0.47
				c0.402,0,0.742-0.155,1.016-0.466s0.41-0.799,0.41-1.463c0-0.635-0.141-1.113-0.422-1.436c-0.282-0.322-0.621-0.484-1.02-0.484
				c-0.39,0-0.722,0.16-0.995,0.477C240.598,3.782,240.461,4.252,240.461,4.877 M239.733,7.993l0.855,0.127
				c0.036,0.264,0.135,0.456,0.298,0.576c0.218,0.162,0.515,0.244,0.893,0.244c0.408,0,0.722-0.082,0.943-0.244
				c0.221-0.162,0.371-0.391,0.449-0.684c0.046-0.179,0.065-0.555,0.063-1.128c-0.383,0.452-0.861,0.679-1.435,0.679
				c-0.713,0-1.266-0.258-1.655-0.771c-0.391-0.514-0.586-1.131-0.586-1.852c0-0.494,0.09-0.951,0.268-1.369
				c0.18-0.418,0.439-0.74,0.779-0.969c0.34-0.228,0.74-0.342,1.199-0.342c0.612,0,1.116,0.247,1.513,0.742V2.377h0.812V6.86
				c0,0.808-0.082,1.379-0.246,1.717c-0.165,0.337-0.426,0.603-0.781,0.798c-0.358,0.194-0.796,0.293-1.317,0.293
				c-0.617,0-1.117-0.14-1.499-0.417C239.904,8.971,239.721,8.552,239.733,7.993"/>
			<path id="Fill-68" d="M252.081,7.563V4.532l-2.759-4.127h1.153l1.411,2.158c0.26,0.404,0.503,0.807,0.727,1.211
				c0.215-0.375,0.477-0.796,0.781-1.265l1.387-2.104h1.104l-2.857,4.127v3.031H252.081z"/>
			<path id="Fill-69" d="M260.419,7.563V6.801c-0.402,0.586-0.951,0.879-1.646,0.879c-0.305,0-0.591-0.059-0.857-0.176
				c-0.265-0.117-0.462-0.264-0.59-0.441c-0.129-0.178-0.22-0.395-0.271-0.652c-0.036-0.173-0.055-0.445-0.055-0.82V2.377h0.88
				v2.875c0,0.459,0.018,0.769,0.054,0.929c0.055,0.231,0.172,0.413,0.351,0.545c0.18,0.131,0.401,0.196,0.664,0.196
				c0.265,0,0.511-0.066,0.742-0.201c0.232-0.137,0.395-0.319,0.491-0.553c0.096-0.232,0.144-0.569,0.144-1.012V2.377h0.879v5.186
				H260.419z"/>
			<path id="Fill-70" d="M267.344,7.563V0.405h1.427l1.693,5.068c0.156,0.472,0.271,0.824,0.343,1.061
				c0.08-0.262,0.208-0.644,0.381-1.148l1.714-4.98h1.273v7.158h-0.913V1.572l-2.079,5.991h-0.855l-2.07-6.094v6.094H267.344z"/>
			<path id="Fill-71" d="M277.205,4.472h2.896c-0.04-0.437-0.15-0.763-0.333-0.981c-0.28-0.338-0.642-0.508-1.088-0.508
				c-0.404,0-0.744,0.135-1.02,0.405C277.387,3.659,277.234,4.019,277.205,4.472 M280.091,5.893l0.908,0.112
				c-0.145,0.53-0.408,0.942-0.797,1.235c-0.388,0.293-0.882,0.439-1.483,0.439c-0.759,0-1.361-0.232-1.804-0.701
				c-0.445-0.467-0.667-1.121-0.667-1.965c0-0.873,0.225-1.549,0.674-2.031c0.449-0.481,1.031-0.723,1.748-0.723
				c0.692,0,1.26,0.236,1.698,0.708c0.44,0.472,0.659,1.136,0.659,1.992c0,0.053-0.002,0.131-0.005,0.235h-3.867
				c0.032,0.568,0.194,1.006,0.484,1.308c0.29,0.303,0.651,0.454,1.084,0.454c0.322,0,0.597-0.084,0.825-0.254
				C279.776,6.534,279.957,6.264,280.091,5.893"/>
			<path id="Fill-72" d="M283.052,7.563V2.377h0.786v0.728c0.163-0.254,0.379-0.458,0.65-0.612c0.27-0.156,0.578-0.232,0.922-0.232
				c0.384,0,0.7,0.08,0.946,0.24c0.245,0.158,0.419,0.381,0.519,0.668c0.41-0.605,0.945-0.908,1.603-0.908
				c0.514,0,0.909,0.143,1.186,0.428c0.277,0.284,0.415,0.723,0.415,1.314v3.561h-0.874V4.295c0-0.351-0.028-0.604-0.085-0.758
				c-0.057-0.156-0.161-0.279-0.31-0.373c-0.15-0.096-0.325-0.143-0.528-0.143c-0.364,0-0.667,0.121-0.908,0.364
				c-0.241,0.241-0.361,0.631-0.361,1.163v3.014h-0.879V4.194c0-0.391-0.07-0.684-0.215-0.879c-0.143-0.195-0.378-0.293-0.703-0.293
				c-0.247,0-0.476,0.064-0.685,0.195c-0.211,0.131-0.363,0.32-0.457,0.572c-0.095,0.25-0.142,0.61-0.142,1.084v2.689H283.052z"/>
			<path id="Fill-73" d="M292.909,4.97c0,0.664,0.145,1.161,0.435,1.492c0.29,0.33,0.654,0.495,1.093,0.495
				c0.438,0,0.799-0.166,1.089-0.498s0.436-0.838,0.436-1.518c0-0.642-0.146-1.127-0.438-1.459c-0.291-0.33-0.652-0.494-1.086-0.494
				c-0.438,0-0.803,0.164-1.093,0.492S292.909,4.306,292.909,4.97 M292.006,4.97c0-0.96,0.266-1.671,0.8-2.134
				c0.447-0.385,0.99-0.576,1.631-0.576c0.713,0,1.296,0.232,1.748,0.701c0.453,0.467,0.679,1.111,0.679,1.936
				c0,0.668-0.101,1.192-0.3,1.574c-0.201,0.383-0.492,0.68-0.875,0.893c-0.382,0.211-0.8,0.316-1.252,0.316
				c-0.725,0-1.312-0.232-1.759-0.697C292.229,6.516,292.006,5.845,292.006,4.97"/>
			<path id="Fill-74" d="M298.835,7.563V2.377h0.791v0.787c0.201-0.369,0.388-0.611,0.56-0.729c0.17-0.117,0.358-0.176,0.563-0.176
				c0.297,0,0.599,0.095,0.903,0.283l-0.302,0.815c-0.215-0.127-0.43-0.19-0.646-0.19c-0.191,0-0.363,0.058-0.517,0.174
				c-0.154,0.115-0.262,0.275-0.328,0.48c-0.097,0.313-0.146,0.654-0.146,1.025v2.715H298.835z"/>
			<path id="Fill-75" d="M303.13,7.563h0.879V2.377h-0.879V7.563z M303.13,1.416h0.879V0.405h-0.879V1.416z"/>
			<path id="Fill-76" d="M309.606,4.96c-0.318,0.13-0.798,0.241-1.436,0.332c-0.361,0.052-0.617,0.11-0.766,0.176
				c-0.15,0.065-0.267,0.16-0.348,0.285c-0.081,0.126-0.122,0.265-0.122,0.418c0,0.233,0.089,0.431,0.267,0.586
				c0.177,0.156,0.437,0.233,0.778,0.233c0.34,0,0.641-0.073,0.903-0.221c0.264-0.148,0.457-0.352,0.581-0.608
				c0.095-0.199,0.142-0.492,0.142-0.88V4.96z M309.679,6.923c-0.325,0.277-0.638,0.472-0.938,0.586
				c-0.303,0.114-0.625,0.171-0.971,0.171c-0.568,0-1.008-0.139-1.313-0.418c-0.306-0.277-0.459-0.634-0.459-1.066
				c0-0.254,0.057-0.485,0.173-0.695s0.267-0.379,0.454-0.506c0.187-0.127,0.397-0.223,0.632-0.288
				c0.173-0.045,0.433-0.089,0.782-0.132c0.71-0.084,1.231-0.186,1.566-0.303c0.004-0.121,0.006-0.196,0.006-0.229
				c0-0.358-0.083-0.61-0.249-0.757c-0.226-0.199-0.56-0.299-1.001-0.299c-0.413,0-0.72,0.074-0.916,0.219s-0.343,0.4-0.438,0.77
				l-0.859-0.119c0.078-0.367,0.207-0.664,0.387-0.891c0.178-0.227,0.437-0.4,0.775-0.521c0.34-0.123,0.731-0.184,1.178-0.184
				c0.441,0,0.803,0.053,1.079,0.156c0.275,0.104,0.479,0.234,0.609,0.393s0.222,0.358,0.274,0.598
				c0.028,0.15,0.044,0.421,0.044,0.812v1.173c0,0.816,0.018,1.334,0.055,1.549c0.038,0.217,0.113,0.424,0.223,0.623h-0.918
				C309.764,7.38,309.706,7.167,309.679,6.923z"/>
			<polygon id="Fill-77" points="312.787,7.563 313.666,7.563 313.666,0.405 312.787,0.405 			"/>
			<polygon id="Fill-78" points="319.781,7.563 319.781,0.405 320.728,0.405 320.728,6.718 324.254,6.718 324.254,7.563 			"/>
			<path id="Fill-79" d="M326.225,7.563h0.879V2.377h-0.879V7.563z M326.225,1.416h0.879V0.405h-0.879V1.416z"/>
			<path id="Fill-80" d="M330.192,4.931c0,0.622,0.085,1.071,0.254,1.349c0.275,0.451,0.65,0.678,1.123,0.678
				c0.384,0,0.716-0.168,0.995-0.5c0.28-0.334,0.421-0.831,0.421-1.492c0-0.678-0.135-1.178-0.403-1.499
				c-0.269-0.322-0.593-0.483-0.975-0.483c-0.384,0-0.716,0.168-0.995,0.5C330.331,3.817,330.192,4.3,330.192,4.931z M330.201,7.563
				h-0.816V0.405h0.879v2.553c0.371-0.465,0.846-0.697,1.421-0.697c0.319,0,0.621,0.064,0.905,0.193
				c0.286,0.127,0.521,0.309,0.704,0.541c0.184,0.233,0.328,0.515,0.432,0.843c0.105,0.329,0.156,0.68,0.156,1.055
				c0,0.89-0.219,1.576-0.659,2.06c-0.438,0.485-0.967,0.729-1.582,0.729c-0.611,0-1.092-0.255-1.439-0.768V7.563z"/>
			<path id="Fill-81" d="M335.893,7.563V2.377h0.791v0.787c0.201-0.369,0.388-0.611,0.56-0.729c0.17-0.117,0.358-0.176,0.563-0.176
				c0.297,0,0.599,0.095,0.903,0.283l-0.302,0.815c-0.215-0.127-0.43-0.19-0.646-0.19c-0.191,0-0.363,0.058-0.517,0.174
				c-0.154,0.115-0.262,0.275-0.328,0.48c-0.097,0.313-0.146,0.654-0.146,1.025v2.715H335.893z"/>
			<path id="Fill-82" d="M343.493,4.96c-0.319,0.13-0.799,0.241-1.437,0.332c-0.361,0.052-0.617,0.11-0.766,0.176
				c-0.15,0.065-0.267,0.16-0.348,0.285c-0.081,0.126-0.122,0.265-0.122,0.418c0,0.233,0.09,0.431,0.267,0.586
				c0.177,0.156,0.437,0.233,0.779,0.233c0.339,0,0.64-0.073,0.902-0.221c0.265-0.148,0.457-0.352,0.581-0.608
				c0.095-0.199,0.143-0.492,0.143-0.88V4.96z M343.566,6.923c-0.325,0.277-0.638,0.472-0.938,0.586
				c-0.303,0.114-0.625,0.171-0.971,0.171c-0.568,0-1.008-0.139-1.313-0.418c-0.306-0.277-0.459-0.634-0.459-1.066
				c0-0.254,0.057-0.485,0.173-0.695s0.267-0.379,0.454-0.506c0.187-0.127,0.398-0.223,0.632-0.288
				c0.173-0.045,0.434-0.089,0.782-0.132c0.71-0.084,1.232-0.186,1.567-0.303c0.003-0.121,0.005-0.196,0.005-0.229
				c0-0.358-0.083-0.61-0.249-0.757c-0.226-0.199-0.56-0.299-1.001-0.299c-0.413,0-0.72,0.074-0.916,0.219s-0.343,0.4-0.438,0.77
				l-0.858-0.119c0.077-0.367,0.207-0.664,0.386-0.891c0.178-0.227,0.437-0.4,0.775-0.521c0.34-0.123,0.731-0.184,1.178-0.184
				c0.441,0,0.803,0.053,1.079,0.156c0.275,0.104,0.479,0.234,0.609,0.393s0.223,0.358,0.274,0.598
				c0.029,0.15,0.044,0.421,0.044,0.812v1.173c0,0.816,0.018,1.334,0.055,1.549c0.038,0.217,0.113,0.424,0.224,0.623h-0.918
				C343.651,7.38,343.593,7.167,343.566,6.923z"/>
			<path id="Fill-83" d="M346.685,7.563V2.377h0.79v0.787c0.202-0.369,0.389-0.611,0.561-0.729c0.17-0.117,0.358-0.176,0.563-0.176
				c0.297,0,0.599,0.095,0.903,0.283l-0.302,0.815c-0.215-0.127-0.43-0.19-0.646-0.19c-0.191,0-0.363,0.058-0.517,0.174
				c-0.154,0.115-0.262,0.275-0.328,0.48c-0.097,0.313-0.146,0.654-0.146,1.025v2.715H346.685z"/>
			<path id="Fill-84" d="M350.935,9.56l-0.098-0.825c0.193,0.053,0.36,0.078,0.503,0.078c0.196,0,0.353-0.033,0.469-0.098
				c0.117-0.065,0.214-0.156,0.288-0.273c0.057-0.088,0.146-0.306,0.27-0.654c0.016-0.049,0.042-0.121,0.078-0.215l-1.969-5.195
				h0.947l1.079,3.003c0.14,0.381,0.266,0.782,0.376,1.2c0.101-0.402,0.222-0.797,0.362-1.181l1.107-3.022h0.879l-1.973,5.273
				c-0.212,0.57-0.376,0.963-0.493,1.178c-0.155,0.289-0.335,0.502-0.537,0.637c-0.201,0.135-0.441,0.201-0.723,0.201
				C351.332,9.666,351.143,9.632,350.935,9.56"/>
		</g>
		<g id="中原" transform="translate(50.000000, 0.472200)">
			<path id="Fill-87" fill="#0064A8" d="M13.825,6.627c-0.492,0.112-0.778-0.006-1.176,0.353c0.135,1.12,0.069,2.439,0.705,3.058
				c1.422-0.422,3.534-0.15,4.822-0.705c-0.203-0.909,0.604-0.808,0.354-1.765c-0.939-0.983-3.032-1.438-4.94-1.059
				C13.681,6.536,13.823,6.513,13.825,6.627 M5.24,7.921c-0.089,0.834,0.146,1.344,0.118,2.117c0.631,0.518,1.943,0.249,2.469,0.588
				c0.019-0.138-0.021-0.334,0.118-0.353c1.273-0.029,2.802,0.146,3.294-0.353c-0.218-1.036-0.059-2.095,0-3.175
				C8.855,6.055,6.016,6.129,5.24,7.921 M13.355,2.51c-0.177,0.269-0.911,0.929-0.589,1.764c0.524,1.351,3.546-0.199,4.823,0.707
				c0.404-0.106,0.882-0.138,1.058-0.471c1.23,0.026,2.147,0.363,3.411,0.353c0.271,0.317,0.41,0.766,0.354,1.411
				c-1.089,0.79-1.904,2.611-1.765,3.999c-0.41,0.138-0.521,0.577-0.47,1.176c-0.308,0.163-0.88,0.062-0.94,0.471
				c-1.308-0.102-4.232-0.137-4.94-0.588c-0.38,0.209-0.847,0.33-1.059,0.706c-0.059,0.467,0.485,1.123,0,1.293
				c0.037,0.16,0.295,0.098,0.47,0.118c-1.063,1.218,0.178,3.305-0.47,5.646c-0.321,0.085-0.237-0.234-0.472-0.236
				c-0.017,0.374-0.266,0.518-0.234,0.941c-0.86,0.116-1.381-0.108-1.765-0.47v-1.411c0.096-0.063,0.191-0.123,0.354-0.118
				c0.126-1.917,0.815-5.228-0.706-6.116c-0.456,0.483-1.776,0.192-1.882,0.705c-0.377,0.104-0.244-0.305-0.471-0.352
				c-1.225,0.186-1.84,0.983-3.176,1.058c-0.16,0.036-0.098,0.295-0.118,0.47c-1.166,0.184-1.758,0.267-2.47-0.352
				c-0.196-2.122,0.637-2.717,1.176-4.235C3.11,8.589,2.506,7.728,2.181,7.215C2.134,7.14,2.395,7.07,2.416,7.097
				C1.702,6.14,0.017,5.555,1.475,4.51c2.687,0.215,5.711,0.091,8.47,0.235c0.331-0.413,0.577-0.911,0.822-1.411
				c-0.279-0.112-0.349-0.436-0.822-0.353c0.033-0.819-0.603-0.966-0.354-2c0.971,0.075,1.743-0.747,2.47-0.588
				C12.973,0.593,12.888,1.649,13.355,2.51"/>
			<path id="Fill-89" fill="#0064A8" d="M105.45,3.333c0.091,0.026,0.231,0.003,0.234,0.118c-0.911,0.708-1.217,1.015-1.41,2.588
				c0.668-0.002,0.695,0.637,1.176,0.823c0.742-0.749,2.806-0.174,3.646-0.823c0.06-0.491-0.344-0.519-0.234-1.059
				c-0.621-0.124-1.544,0.054-1.883-0.353c0.556,0.056,0.22-0.147,0.118-0.353c0.67-0.035,1.186-0.226,1.881-0.235
				c0.084-0.436-0.199-0.505-0.116-0.941C107.326,3.13,106.225,2.601,105.45,3.333 M102.98,4.863
				c0.854-0.087,1.181-0.701,1.529-1.294c-0.268-0.202-0.688-0.251-1.177-0.235C103.267,3.562,102.788,4.025,102.98,4.863
				c-0.794-0.421-0.95-1.479-1.059-2.588c1.368,0.114,0.95-1.559,2-1.764c0.355,0.781,0.518,1.757,1.294,2.117
				c2.027-0.208,3.736-0.732,6.116-0.587c0.169,0.261,0.295,0.566,0.235,1.058c-0.888,0.21-1.366,0.829-1.765,1.529
				c0.282,0.948-0.273,2.539-0.118,3.411c-0.99-0.773-2.961-0.568-4.705-0.588c-0.42-0.756-1.489-0.861-2.587-0.941
				c-0.281,0.51-0.588,0.633-1.176,0.353C101.793,5.978,102.776,6.17,102.98,4.863"/>
			<path id="Fill-91" fill="#0064A8" d="M100.275,1.099v0.823c-1.421,0.274-1.555,0.484-2.234,1.294
				c0.235,0.391,0.908,0.345,1.528,0.353v1.294h-1.058c-0.471,0.078-0.341,0.756-0.354,1.294c0.345,0.244,1.127,0.048,1.294,0.47
				c0.135,0.8-0.714,0.619-0.94,1.058c0.106,0.599,0.563,0.848,0.94,1.177c3.359-0.366,7.676,0.225,10.821-0.353
				c0.817,0.32,1.931,0.343,3.059,0.353c-0.117,0.785-0.543,1.26-1.294,1.411v0.824c-0.374,0.018-0.519,0.266-0.941,0.234
				c-0.194-0.41,0.027-0.626-0.118-1.176c-2.326-0.858-5.827-0.732-8.821-0.588c-0.251,0.055-0.224-0.168-0.235-0.352
				c-0.417-0.183-0.07,0.399-0.354,0.352c-2.063,0.245-4.366-0.391-5.292,0.588c-0.165,0.042-0.01,0.208,0.118,0.236
				c-1.222,0.111-1.143,1.523-2.353,1.646c-0.545-1.053-0.569-3.005-0.235-4.116c0.804,0.345,1.525,1.359,2.823,0.823
				c0.866-1.531,0.221-3.873,0.117-5.763c-0.481-0.264-0.826-0.664-0.941-1.294C96.837,0.995,99.153,0.999,100.275,1.099"/>
			<path id="Fill-93" fill="#0064A8" d="M41.466,1.687c-0.154,1.291,0.223,2.05,0.94,2.47c1.357-0.499,3.965-0.517,6.233-0.47
				c0.274,0.43,0.419,0.993,0.353,1.764c-3.957,0.319-8.213-0.27-11.761,0.823c-0.726,0.72-1.508,1.515-0.94,2.941
				c-0.303,0.286-0.34,1.332-0.118,1.764c-0.845,1.28-0.826,3.032-1.177,4.587c-0.213,0.454-0.94,0.392-0.705,1.294
				c-0.24,0.236-0.231-0.052-0.472-0.118v1.059c-0.403-0.092-0.561,0.065-0.47,0.47c-0.76,0.142-1.278,0.525-1.764,0.941
				c-0.732-0.136-1.604-0.408-2.235,0c-0.481-0.381-1.031-0.694-1.764-0.823c-0.064-1.161,0.413-1.783,0.94-2.352
				c0.568-0.06,0.447,0.571,0.706,0.823c1.117,0.138,1.514-0.446,2.469-0.471c1.376-2.623,3.037-4.962,2.824-9.174
				c-0.45-0.195-0.053-0.625-0.589-0.588c0.028-0.988-0.294-1.846,0.118-2.588c0.693-0.071,1.368,0.063,1.999,0.588
				c1.19-0.142,2.391-0.274,3.529-0.47c0.253-0.099,0.189-0.516,0.353-0.706c-0.471-0.548-0.971-1.068-1.059-1.999
				C39.899,1.156,40.687,1.537,41.466,1.687"/>
			<path id="Fill-95" fill="#0064A8" d="M72.4,3.804c0.305,0.44-0.146,1.635,0.706,1.529c-0.279,0.584,0.067,1.794-0.588,1.999
				c0.128,0.678,0.533,0.345,0.822,0.824c2.428-0.019,6.185-0.852,7.764,0.117c-0.038,0.433,0.1,1.042-0.118,1.294
				c-3.057,0.111-5.301-0.35-6.704,0.588c-0.24,0.676,0.491,0.993,0.235,1.294c0.543,0.516,1.34,0.777,1.528,1.647
				c1.212,0.69,2.771,1.186,3.529,2c1.585-0.018,2.319,0.816,3.293,1.411c0.277,0.002,0.346-0.203,0.705-0.118
				c0.537,1.11,2.682,0.612,4,0.941c0.111,0.817-0.46,0.953-1.06,1.058c-0.132,0.17-0.127,0.288,0.117,0.354
				c-0.83,0.972-2.479,1.126-3.527,1.881c-0.397-0.355-1.661-1.094-2.117-0.823c-0.447-0.729-1.497-0.856-1.529-1.999
				c-1.494-0.239-1.581-1.949-3.176-2.353c0.152-0.465-0.387-0.24-0.235-0.706c-1.32-0.196-0.954-1.604-2.353-1.528
				c0.063-0.095,0.124-0.191,0.119-0.353c-0.237-0.04-0.369,0.024-0.354,0.235c-0.48-1.06-2.245-0.683-2.705-0.118
				c0.269,1.255-0.628,1.819-0.589,2.47c-0.593-0.162-0.621,0.241-1.058,0.235c0.088,0.952-0.486,1.24-0.824,1.765
				c-0.381,0.066-0.591-0.036-0.705-0.236c-0.014,0.653-1.24,0.094-1.177,0.824c-0.657-0.023-1.426-0.191-1.881,0.235
				c-2.03,0.284-2.926-0.902-3.883-1.999c0.048-0.581,0.061-1.195,0.354-1.53c2.496,0.011,4.69,0.698,6.587-0.235
				c0.205-0.108,0.259-0.368,0.235-0.705c1.313-0.278,2.57-1.357,2.352-3.294c-0.248-0.3-0.578-0.52-0.94-0.705
				c-0.36,0.576-2.059,0.129-2.471,0.705c-1.021-0.588-1.71-0.056-3.527-0.118c-0.284-0.606-0.064-1.754,0.47-2.469
				c1.323,0.328,3.308,0.144,4.822,0.235c0.904,0.054,1.883,0.644,2.235-0.353C69.841,6.308,68.679,2.947,72.4,3.804"/>
			<path id="Fill-97" fill="#0064A8" d="M40.525,11.449c0.046,0.634-0.685,0.493-0.471,1.294c0.332,0.178,0.485,0.534,0.823,0.706
				c2.308-0.646,6.504,1.238,6.939-1.647c-0.405-0.196-0.326-0.218,0-0.471C45.874,10.867,43.008,11.42,40.525,11.449 M45.112,8.391
				c-0.731,0.858-2.445-0.669-2.822,0.471c-0.744,0.04-1.117,0.452-1.646,0.705c0.181,0.407,0.206,0.97,0.706,1.059
				c0.193-0.002,0.065-0.326,0.234-0.353c0.125,0.11,0.036,0.434,0.354,0.353c0.193-0.002,0.065-0.326,0.234-0.353
				c1.972-0.243,3.161-0.388,4.587,0.117c0.366-0.378,0.86-0.629,0.706-1.528C46.702,8.533,45.715,8.609,45.112,8.391 M48.993,7.332
				c0.321,0.659,0.913,1.047,0.823,2.117h-0.588c-0.287,0.861,0.092,1.38,0.353,2c-0.297,0.213-0.292,0.728-0.588,0.941
				c0.086,0.11,0.214,0.178,0.353,0.235c-0.345,0.4-0.565,0.925-0.471,1.764c-0.952,0.387-2.931,0.321-4.469,0.118
				c-0.222,0.013-0.082,0.389-0.354,0.353c-0.376-0.477-0.551,0.079-0.588-0.471c-1.275,0.644-2.824,0.274-4.587,0.471
				c-0.086-0.696,0.055-2.125,0.706-2.47c-0.017-0.219-0.078-0.393-0.235-0.47c0.721-2.023-1.706-4.013,0.94-4.47
				C42.507,7.067,46.349,7.362,48.993,7.332"/>
			<path id="Fill-99" fill="#0064A8" d="M105.45,12.861c-0.183-0.868-2.038-0.914-2.705-0.235
				C102.231,14.183,105.804,14.545,105.45,12.861 M107.097,12.39c-0.196,0.627-0.76,0.888-1.177,1.294
				c0.409,2.593,4.984,0.029,5.646,2.353c-1.146,0.468-2.413-0.117-3.883,0c-0.725-1.071-2.261-0.752-3.175-0.118
				c0.235,1.254-0.565,1.472-0.823,2.235c-0.987-0.243-0.887,0.603-1.646,0.588c0.197,1.064-1.48,1.361-1.059,1.882
				c-0.787,0.506-1.867,0.72-2.705,1.176c-1.304-0.383-2.954-0.417-4.234-0.823c-0.22-0.369-0.359-0.818-0.589-1.177
				c0.562-0.065,0.297-0.958,0.353-1.529c1.091,0.358,2.314,1.271,3.999,1.176c1.292-0.072,2.536-0.717,3.647-0.94
				c0.938-0.533,2.957-3.269,1.059-3.529c-0.485-0.067-1.546,0.497-2.471,0.47c-0.116-0.003-0.421-0.242-0.47-0.235
				c-1.035,0.157-1.821,0.998-2.587,0.824c-0.191-0.163-0.373-0.334-0.59-0.471c-0.132-0.682,0.243-0.855,0.354-1.293
				c1.988-0.052,4.303,0.224,5.646-0.471c-0.003-0.196-0.383-0.859,0.118-0.823c-0.841-0.571-2.259-0.565-3.412-0.824
				c0.325-0.272,0.073-0.389,0.118-0.94c0.754-0.165,2.206,0.507,3.881,0.352c0.777-0.072,1.331-0.428,2.118-0.235
				C105.662,11.865,106.87,11.637,107.097,12.39"/>
			<path id="Fill-101" fill="#0064A8" d="M43.113,15.919h0.234c0.401,0.422,0.972,0.676,1.529,0.941
				c0.083,0.349-0.245,1.108,0.354,0.941c-0.081,0.991,0.268,2.38-0.705,3.058c-0.542-0.086-0.696-0.56-1.294-0.588
				C43.289,18.732,42.56,17.407,43.113,15.919"/>
			<path id="Fill-103" fill="#0064A8" d="M53.463,17.801c-0.533,0.5-1.727,1.55-2.235,1.294c-1.46,2.146-3.575-0.431-3.293-2.823
				c0.236,0.04,0.368-0.024,0.354-0.235c1.479,0.724,2.205,1.647,4.233,1.058C52.728,17.439,53.062,17.653,53.463,17.801"/>
			<path id="Fill-105" fill="#0064A8" d="M39.819,16.86c0.213,0.545,0.736,1.825-0.353,1.764c-0.259,0.133-0.183,0.602-0.471,0.706
				c-0.424,0.063-0.75-0.576-0.822,0.117c-0.809-0.564-1.903-0.841-2.118-1.999C37.236,17.122,38.645,16.498,39.819,16.86"/>
		</g>
		<polygon id="Fill-107" fill="#A74624" points="46.805,27.372 410.805,27.372 410.805,26.622 46.805,26.622 		"/>
	</g>
</g>
</svg>
